<svg xmlns="http://www.w3.org/2000/svg" viewBox="0 0 1364 960"><path fill="#0C5B75" d="m407.742 409.694-.044-.001c-3.922-.173-9.059-1.398-14.854-3.543a1 1 0 0 1 .694-1.876c5.604 2.074 10.53 3.257 14.248 3.421a1 1 0 0 1-.044 1.999zm-28.24-9.649c-.156 0-.315-.037-.463-.114a161.252 161.252 0 0 1-13.028-7.646.999.999 0 1 1 1.09-1.676 159.53 159.53 0 0 0 12.866 7.551 1 1 0 0 1-.465 1.885zm-25.17-16.31a.998.998 0 0 1-.614-.211 178.452 178.452 0 0 1-11.508-9.764 1.001 1.001 0 0 1 1.359-1.469 176.483 176.483 0 0 0 11.378 9.655 1 1 0 0 1-.615 1.789zm-21.995-20.377a.998.998 0 0 1-.743-.33 153.208 153.208 0 0 1-9.562-11.686 1 1 0 1 1 1.609-1.187 151.132 151.132 0 0 0 9.437 11.533 1 1 0 0 1-.741 1.67zm-17.727-24.134a1 1 0 0 1-.866-.499 122.58 122.58 0 0 1-6.765-13.513.999.999 0 1 1 1.841-.781 120.782 120.782 0 0 0 6.655 13.292 1 1 0 0 1-.865 1.501zm-11.62-27.556c-.44 0-.844-.293-.965-.738a104.214 104.214 0 0 1-2.89-14.84 1 1 0 0 1 1.986-.237c.582 4.863 1.535 9.76 2.834 14.554a1 1 0 0 1-.965 1.261zm-3.528-29.656h-.03a1 1 0 0 1-.97-1.029c.147-4.979.665-10.043 1.541-15.051a1 1 0 0 1 1.97.344 103.956 103.956 0 0 0-1.511 14.765 1.002 1.002 0 0 1-1 .971zm5.087-29.466a1.001 1.001 0 0 1-.956-1.296 181.43 181.43 0 0 1 5.04-14.197 1 1 0 0 1 1.855.749 179.758 179.758 0 0 0-4.984 14.04 1.001 1.001 0 0 1-.955.704zm11.272-27.726a.999.999 0 0 1-.885-1.463c2.37-4.54 4.963-8.903 7.708-12.971a1 1 0 1 1 1.658 1.118 133.021 133.021 0 0 0-7.593 12.779 1 1 0 0 1-.888.537zm16.771-24.753a1 1 0 0 1-.753-1.658 114.682 114.682 0 0 1 10.667-10.695 1.001 1.001 0 0 1 1.32 1.504 112.51 112.51 0 0 0-10.481 10.508.996.996 0 0 1-.753.341zm22.468-19.709a1 1 0 0 1-.556-1.832 122.08 122.08 0 0 1 13.065-7.562 1 1 0 0 1 .895 1.789 119.978 119.978 0 0 0-12.85 7.437.996.996 0 0 1-.554.168zm26.719-13.428a1 1 0 0 1-.345-1.939 159.924 159.924 0 0 1 14.393-4.515 1 1 0 0 1 .51 1.934 158.032 158.032 0 0 0-14.212 4.458 1.004 1.004 0 0 1-.346.062zm223.002-5.528c-4.568 0-9.438-.069-14.477-.205a1 1 0 0 1-.973-1.026.988.988 0 0 1 1.026-.973c5.021.135 9.874.204 14.423.204h.549a1 1 0 0 1 .002 2h-.55zm15.545-.286a1 1 0 0 1-.039-1.999 309.1 309.1 0 0 0 14.921-.925 1 1 0 0 1 .174 1.992c-4.762.417-9.815.73-15.019.932h-.037zm-44.993-.481-.048-.001c-4.607-.217-9.514-.482-15-.812a1 1 0 0 1-.938-1.058.985.985 0 0 1 1.058-.938c5.477.329 10.375.594 14.973.81a1 1 0 0 1-.045 1.999zm-164.612-1.425a.999.999 0 0 1-.177-1.984 234.9 234.9 0 0 1 14.901-2.191 1 1 0 0 1 .23 1.987 233.076 233.076 0 0 0-14.774 2.171.929.929 0 0 1-.18.017zm134.649-.345c-.022 0-.045 0-.068-.002-3.138-.21-6.28-.424-9.425-.638l-5.545-.377a.999.999 0 0 1-.93-1.065.995.995 0 0 1 1.065-.93l5.547.377c3.144.214 6.286.428 9.422.639a1 1 0 0 1-.066 1.996zm104.82-.434a.999.999 0 0 1-.148-1.989 189.896 189.896 0 0 0 14.654-2.787 1 1 0 1 1 .454 1.948 191.916 191.916 0 0 1-14.809 2.816.862.862 0 0 1-.151.012zm-134.759-1.566c-.021 0-.042 0-.063-.002a1353.72 1353.72 0 0 0-14.964-.864 1 1 0 1 1 .103-1.997c4.603.238 9.504.521 14.985.865a1.001 1.001 0 0 1-.061 1.998zm-74.931-1.156a1 1 0 0 1-.062-1.998c4.787-.302 9.843-.513 15.029-.627.541.003 1.01.425 1.021.978a.998.998 0 0 1-.978 1.021 364.806 364.806 0 0 0-15.01.626zm44.973-.36h-.035a624.189 624.189 0 0 0-14.968-.342 1.001 1.001 0 0 1 .01-2h.01c4.8.049 9.712.161 15.016.343a1 1 0 0 1-.033 1.999zm193.872-3.813a1 1 0 0 1-.322-1.948c4.818-1.637 9.454-3.52 13.781-5.596a1 1 0 1 1 .865 1.803c-4.398 2.11-9.109 4.023-14.002 5.686a.978.978 0 0 1-.322.055zM954.26 640.768l16.753 7.69-11.73 25.553-16.753-7.692z"/><path fill="#0C5B75" d="M936.281 746.157a600.194 600.194 0 0 1-21.821 43.246 674.693 674.693 0 0 1-3.296 5.866 601.752 601.752 0 0 1-17.033 28.019l-22.282-10.228a599.636 599.636 0 0 1 10.143-31.182 651.628 651.628 0 0 1 2.299-6.323 600.484 600.484 0 0 1 18.568-44.739 598.813 598.813 0 0 1 26.391-50.572 602.833 602.833 0 0 1 14.137-23.025l22.282 10.228a602.996 602.996 0 0 1-10.151 31.179 599.272 599.272 0 0 1-19.237 47.531z"/><path fill="#FFBC47" d="m957.426 693.177-28.176-12.934a602.833 602.833 0 0 1 14.137-23.025l22.282 10.228a602.57 602.57 0 0 1-8.243 25.731zM908.277 800.267a601.752 601.752 0 0 1-14.146 23.021l-22.282-10.228a599.636 599.636 0 0 1 8.235-25.734l28.193 12.941zM953.227 704.953l-30.17-13.849a672.867 672.867 0 0 1 3.305-5.862l29.155 13.383a633.679 633.679 0 0 1-2.29 6.328zM914.46 789.403a674.693 674.693 0 0 1-3.296 5.866l-29.173-13.392a651.628 651.628 0 0 1 2.299-6.323l30.17 13.849z"/><circle cx="995.138" cy="573.866" r="71.024" fill="#BFDDFF"/><path fill="#0C5B75" d="M1029.186 499.695c-41.079-18.857-89.773-.925-108.547 39.973-18.774 40.897-.628 89.511 40.451 108.369 41.08 18.857 89.773.926 108.547-39.971 18.774-40.899.628-89.513-40.451-108.371zm-62.858 136.931c-34.815-15.982-50.139-57.036-34.228-91.697 15.911-34.662 57.032-49.804 91.847-33.823 34.815 15.982 50.14 57.035 34.229 91.697-15.911 34.662-57.033 49.805-91.848 33.823z"/><path fill="#FFF" d="M991.565 540.078c-9.83.525-25.364-1.732-26.797-8.37-1.425-6.594 11.289-16.467 23.916-18.413 14.934-2.301 31.932 6.15 31.881 13.235-.049 6.924-16.384 12.875-29 13.548z"/><path fill="#117CA0" d="m460.25 506.382-2.742 47.501c-4.118-3.653-8.639-6.913-12.991-10.219-4.281-3.252-8.519-6.632-12.189-10.598-3.733-4.032-6.441-8.601-8.7-13.581-2.186-4.818-4.147-9.793-7.304-14.097-2.476-3.388-5.675-6.167-9.138-8.512-7.174-4.876-15.359-7.981-22.656-12.642-3.68-2.339-7.091-5.092-9.813-8.517-3.288-4.127-5.491-8.982-7.521-13.813-2.028-4.822-3.907-9.735-6.547-14.268a46.702 46.702 0 0 0-8.319-10.441c-6.506-6.158-14.561-10.52-23.04-13.284-20.754-6.782-42.924-3.36-63.794 1.044-1.232.263-2.465.525-3.706.799-.442-12.455 18.323-20.416 29.745-21.43 7.813-.692 15.413 2.695 23.233 3.201 39.628 2.595 66.646-8.412 80.81 38.79 1.581 5.284 2.843 10.884 6.313 15.17 15.94 16.995 60.842 10.745 58.359 44.897z"/><path fill="#0C5B75" d="M420.355 599.878c-33.171 8.566-63.044-22.391-38.813-56.307 16.231-17.116-1.319-30.449-17.62-36.246-8.089-2.887-18.181-4.287-21.874-12.045-6.048-17.417 17.805-36.721-17.18-48.701-19.74-6.77-59.052 7.39-62.956-19.465-.017-.125-.036-.26-.043-.387 19.829-4.311 40.553-8.288 60.633-3.691 8.816 2.018 17.372 5.609 24.637 11.051 3.549 2.654 6.769 5.765 9.481 9.282 3.015 3.918 5.21 8.317 7.157 12.85 2.052 4.797 3.872 9.713 6.386 14.302 2.208 4.04 5.001 7.658 8.522 10.646 6.363 5.396 14.147 8.665 21.427 12.597 3.699 2.008 7.348 4.204 10.552 6.962 3.658 3.167 6.374 7.029 8.523 11.349 2.344 4.725 4.131 9.717 6.842 14.255 2.61 4.391 6.084 8.181 9.879 11.576 6.838 6.137 14.72 11.031 21.526 17.205-.002-.003.236 35.131-37.079 44.767z"/><path fill="#035875" d="m457.508 553.883-.076 1.225c-6.806-6.174-14.688-11.067-21.526-17.205-3.796-3.395-7.269-7.185-9.879-11.576-2.711-4.538-4.497-9.53-6.842-14.255-2.149-4.32-4.865-8.183-8.523-11.349-3.204-2.757-6.854-4.954-10.552-6.962-7.281-3.932-15.064-7.201-21.427-12.597-3.521-2.987-6.313-6.606-8.522-10.646-2.514-4.59-4.333-9.505-6.386-14.302-1.946-4.532-4.142-8.932-7.157-12.85-2.711-3.517-5.931-6.628-9.481-9.282-7.265-5.442-15.821-9.032-24.637-11.051-20.08-4.596-40.804-.62-60.633 3.691-.04-.328-.069-.65-.079-.974 1.24-.274 2.473-.536 3.706-.799 20.87-4.404 43.04-7.826 63.794-1.044 8.479 2.764 16.535 7.126 23.04 13.284a46.646 46.646 0 0 1 8.319 10.441c2.641 4.533 4.519 9.446 6.547 14.268 2.03 4.831 4.233 9.685 7.521 13.813 2.722 3.425 6.133 6.178 9.813 8.517 7.297 4.662 15.482 7.766 22.656 12.642 3.463 2.345 6.662 5.124 9.138 8.512 3.157 4.304 5.118 9.279 7.304 14.097 2.26 4.98 4.967 9.549 8.7 13.581 3.67 3.967 7.908 7.347 12.189 10.598 4.354 3.309 8.875 6.569 12.993 10.223z"/><path fill="#60A5BD" d="m457.508 553.883-.076 1.225c-6.806-6.174-14.688-11.067-21.526-17.205-3.796-3.395-7.269-7.185-9.879-11.576-2.711-4.538-4.497-9.53-6.842-14.255-2.149-4.32-4.865-8.183-8.523-11.349-3.204-2.757-6.854-4.954-10.552-6.962-7.281-3.932-15.064-7.201-21.427-12.597-3.521-2.987-6.313-6.606-8.522-10.646-2.514-4.59-4.333-9.505-6.386-14.302-1.946-4.532-4.142-8.932-7.157-12.85-2.711-3.517-5.931-6.628-9.481-9.282-7.265-5.442-15.821-9.032-24.637-11.051-20.08-4.596-40.804-.62-60.633 3.691-.04-.328-.069-.65-.079-.974 1.24-.274 2.473-.536 3.706-.799 20.87-4.404 43.04-7.826 63.794-1.044 8.479 2.764 16.535 7.126 23.04 13.284a46.646 46.646 0 0 1 8.319 10.441c2.641 4.533 4.519 9.446 6.547 14.268 2.03 4.831 4.233 9.685 7.521 13.813 2.722 3.425 6.133 6.178 9.813 8.517 7.297 4.662 15.482 7.766 22.656 12.642 3.463 2.345 6.662 5.124 9.138 8.512 3.157 4.304 5.118 9.279 7.304 14.097 2.26 4.98 4.967 9.549 8.7 13.581 3.67 3.967 7.908 7.347 12.189 10.598 4.354 3.309 8.875 6.569 12.993 10.223z"/><path fill="#F5885B" d="m465.83 673.775-3.898 11.049c-5.492-9.231-11.043-18.558-18.445-26.342-22.002-23.127-56.602-29.072-88.518-28.406-31.906.653-63.981 6.586-95.555 1.878-8.954-1.328-19.155-4.699-22.081-13.263-.596-1.776-.819-3.604-.731-5.442 13.611-4.49 27.455-8.228 41.54-10.914 21.903-4.178 44.416-5.82 66.65-3.542 18.309 1.884 36.366 6.505 53.207 13.967 16.604 7.345 32.059 17.519 44.792 30.514 6.595 6.731 12.186 14.204 17.39 22.043 1.876 2.82 3.719 5.657 5.649 8.458z"/><path fill="#FF996E" d="m471.576 657.465-5.275 14.973-.47 1.337c-1.931-2.801-3.774-5.638-5.649-8.458-5.203-7.839-10.794-15.312-17.39-22.043-12.733-12.995-28.187-23.17-44.792-30.514-16.841-7.461-34.898-12.083-53.207-13.967-22.234-2.279-44.747-.637-66.65 3.542-14.085 2.686-27.929 6.424-41.54 10.914.01-.417.044-.838.101-1.25.393-3.613 1.874-7.206 3.764-10.36 9.332-15.614 27.464-23.685 45.144-27.997 55.238-13.476 116.783 2.529 158.481 41.194 12.582 11.676 23.74 25.874 27.483 42.629z"/><path fill="#FFC0A6" d="m466.3 672.438-.47 1.337c-1.931-2.801-3.774-5.638-5.649-8.458-5.203-7.839-10.794-15.312-17.39-22.043-12.733-12.995-28.187-23.17-44.792-30.514-16.841-7.461-34.898-12.083-53.207-13.967-22.234-2.279-44.747-.637-66.65 3.542-14.085 2.686-27.929 6.424-41.54 10.914.01-.417.044-.838.101-1.25 16.099-5.279 32.543-9.51 49.272-12.198 21.575-3.474 43.731-4.373 65.421-1.359 18.191 2.524 36.058 7.761 52.569 15.836 16.31 7.963 31.309 18.757 43.467 32.271 6.465 7.2 11.739 15.214 17.085 23.241.588.887 1.185 1.762 1.783 2.648z"/><path fill="#F5885B" d="M976.578 416.394c-10.269 15.548-2.18 39.447-11.865 55.956-5.949 9.27-16.225 10.249-25.109 13.082-15.522 6.51-32.552 14.723-44.827 29.532-5.287 7.243-8.713 16.666-14.851 22.69-3.435-6.903-6.435-15.796-8.192-25.173.083-.242.175-.491.266-.731 3.597-9.435 9.748-18.098 19.075-22.514 8.492-4.022 18.9-4.806 25.83-11.689 3.793-3.766 5.725-8.871 7.656-13.739 1.998-5.026 4.218-9.743 8.064-13.632 6.413-6.495 15.703-10.91 19.57-19.599 2.354-5.304 1.797-11.167 1.965-16.81.09-3.156.453-6.319 1.667-9.259 1.036-2.509 2.555-4.772 4.283-6.853 3.408-4.106 7.523-7.552 10.994-11.6 3.526-4.105 6.043-8.876 7.695-14.02 3.603-11.234 3.221-23.159 4.023-34.791.729-10.523 2.473-21.797 8.73-30.595.212-.299.432-.596.657-.885 1.589.334 3.171 1.125 4.705 2.438 11.452 12.693-2.979 35.006-1.749 51.234 3.189 18.405 11.809 30.318-5.728 44.441-4.502 3.812-9.425 7.162-12.859 12.517z"/><path fill="#FFA078" d="M982.823 337.243c-.802 11.632-.42 23.557-4.023 34.791-1.652 5.144-4.169 9.915-7.695 14.02-3.471 4.049-7.586 7.495-10.994 11.6-1.728 2.081-3.247 4.343-4.283 6.853-1.214 2.94-1.577 6.103-1.667 9.259-.168 5.643.389 11.506-1.965 16.81-3.867 8.689-13.157 13.104-19.57 19.599-3.846 3.889-6.066 8.606-8.064 13.632-1.931 4.869-3.863 9.974-7.656 13.739-6.93 6.883-17.339 7.667-25.83 11.689-9.327 4.416-15.477 13.079-19.075 22.514-.091.24-.182.489-.266.731-.093-.476-.179-.95-.257-1.43-3.771-21.756-.689-45.687 19.227-53.287 10.467-1.399 19.237-1.531 20.23-17.805 4.622-26.646.314-55.753 27.054-64.382 11.617-4.655 31.058-6.324 35.498-23.567.818-7.068-1.648-13.784-1.023-20.845.219-12.592 9.515-26.651 18.911-25.541.276.023.555.069.837.139-.225.288-.445.586-.657.885-6.259 8.799-8.003 20.072-8.732 30.596z"/><path fill="#FFF" d="M982.823 337.243c-.802 11.632-.42 23.557-4.023 34.791-1.652 5.144-4.169 9.915-7.695 14.02-3.471 4.049-7.586 7.495-10.994 11.6-1.728 2.081-3.247 4.343-4.283 6.853-1.214 2.94-1.577 6.103-1.667 9.259-.168 5.643.389 11.506-1.965 16.81-3.867 8.689-13.157 13.104-19.57 19.599-3.846 3.889-6.066 8.606-8.064 13.632-1.931 4.869-3.863 9.974-7.656 13.739-6.93 6.883-17.339 7.667-25.83 11.689-9.327 4.416-15.477 13.079-19.075 22.514-.091.24-.182.489-.266.731-.093-.476-.179-.95-.257-1.43a55.185 55.185 0 0 1 3.102-6.622c2.222-4.001 5.013-7.701 8.444-10.733 3.652-3.225 7.902-5.412 12.474-7.044 4.665-1.658 9.52-2.844 14.008-4.964 5.135-2.416 8.889-6.13 11.43-11.214 2.483-4.977 3.928-10.426 6.79-15.227 2.414-4.038 5.89-7.193 9.509-10.129 3.783-3.059 7.803-5.933 10.97-9.664 3.851-4.529 5.074-9.785 5.18-15.639.098-5.664-.243-11.419 2.256-16.673 2.214-4.652 5.948-8.341 9.545-11.931 3.971-3.961 7.765-7.963 10.327-13.005 2.722-5.374 4.147-11.299 4.961-17.231 2.461-17.852-.613-40.278 10.901-55.351.276.023.555.069.837.139-.225.288-.445.586-.657.885-6.259 8.799-8.003 20.072-8.732 30.596z"/><path fill="#ABD4FF" d="M913.669 203.516H430.51a8.506 8.506 0 0 0-8.506 8.505V813.18a8.505 8.505 0 0 0 8.506 8.505h385.429a8.503 8.503 0 0 0 6.013-2.49l97.73-97.706a8.504 8.504 0 0 0 2.492-6.015V212.021a8.505 8.505 0 0 0-8.505-8.505z"/><path fill="#FFF" d="M809.934 808.649H445.011c-5.498 0-9.97-4.473-9.97-9.97V226.522c0-5.497 4.473-9.97 9.97-9.97h454.157c5.498 0 9.97 4.473 9.97 9.97v482.944a9.903 9.903 0 0 1-2.921 7.051l-89.234 89.212a9.906 9.906 0 0 1-7.049 2.92zm-364.923-589.2a7.081 7.081 0 0 0-7.073 7.073v572.157c0 3.9 3.173 7.073 7.073 7.073h364.923a7.031 7.031 0 0 0 5.001-2.071l89.234-89.212a7.029 7.029 0 0 0 2.073-5.003V226.522c0-3.9-3.173-7.073-7.073-7.073H445.011z"/><path fill="#81B4EB" d="M922.174 718.998 819.461 821.685V718.998z"/><path fill="#FFF" d="M587.621 468.095H475.588c-1.196 0-2.165-.998-2.165-2.23s.97-2.23 2.165-2.23H587.62c1.196 0 2.166.998 2.166 2.23s-.969 2.23-2.165 2.23zM844.19 468.095H599.611c-1.196 0-2.165-.998-2.165-2.23s.969-2.23 2.165-2.23H844.19c1.196 0 2.165.998 2.165 2.23.001 1.232-.969 2.23-2.165 2.23zM876.232 468.095h-17.966c-1.041 0-1.885-.869-1.885-1.941s.844-1.941 1.885-1.941h17.966c1.041 0 1.885.869 1.885 1.941-.001 1.072-.844 1.941-1.885 1.941zM875.951 491.136H475.588c-1.196 0-2.165-.998-2.165-2.23 0-1.231.97-2.23 2.165-2.23H875.95c1.196 0 2.166.998 2.166 2.23s-.969 2.23-2.165 2.23zM587.621 534.74H475.588c-1.196 0-2.165-.998-2.165-2.23 0-1.231.97-2.23 2.165-2.23H587.62c1.196 0 2.166.998 2.166 2.23s-.969 2.23-2.165 2.23zM844.19 534.74H599.611c-1.196 0-2.165-.998-2.165-2.23 0-1.231.969-2.23 2.165-2.23H844.19c1.196 0 2.165.998 2.165 2.23.001 1.232-.969 2.23-2.165 2.23zM624.234 511.7H475.588c-1.196 0-2.165-.999-2.165-2.23 0-1.232.97-2.23 2.165-2.23h148.645c1.196 0 2.165.998 2.165 2.23.001 1.231-.968 2.23-2.164 2.23zM875.951 511.7H646.25c-1.196 0-2.166-.999-2.166-2.23 0-1.232.97-2.23 2.166-2.23h229.701c1.196 0 2.166.998 2.166 2.23-.001 1.231-.97 2.23-2.166 2.23zM876.232 534.74h-17.966c-1.041 0-1.885-.869-1.885-1.941s.844-1.941 1.885-1.941h17.966c1.041 0 1.885.869 1.885 1.941-.001 1.072-.844 1.941-1.885 1.941zM587.621 411.846H475.588c-1.196 0-2.165-.998-2.165-2.23s.97-2.23 2.165-2.23H587.62c1.196 0 2.166.998 2.166 2.23s-.969 2.23-2.165 2.23zM702.052 411.846H599.611c-1.196 0-2.165-.998-2.165-2.23s.969-2.23 2.165-2.23h102.441c1.196 0 2.165.998 2.165 2.23s-.969 2.23-2.165 2.23zM734.093 411.846h-17.966c-1.041 0-1.885-.869-1.885-1.941s.844-1.941 1.885-1.941h17.966c1.041 0 1.885.869 1.885 1.941s-.844 1.941-1.885 1.941zM733.812 434.887H475.588c-1.196 0-2.165-.998-2.165-2.23 0-1.231.97-2.23 2.165-2.23h258.224c1.196 0 2.166.998 2.166 2.23 0 1.231-.97 2.23-2.166 2.23zM502.338 378.796h-26.749c-1.196 0-2.165-.998-2.165-2.23 0-1.231.97-2.23 2.165-2.23h26.749c1.196 0 2.165.998 2.165 2.23 0 1.231-.969 2.23-2.165 2.23zM616.769 378.796H514.328c-1.196 0-2.165-.998-2.165-2.23 0-1.231.969-2.23 2.165-2.23h102.441c1.196 0 2.165.998 2.165 2.23 0 1.231-.969 2.23-2.165 2.23zM538.951 355.755h-63.362c-1.196 0-2.165-.999-2.165-2.23 0-1.232.97-2.23 2.165-2.23h63.362c1.196 0 2.165.998 2.165 2.23s-.969 2.23-2.165 2.23zM648.529 355.755h-87.563c-1.196 0-2.166-.999-2.166-2.23 0-1.232.97-2.23 2.166-2.23h87.563c1.196 0 2.166.998 2.166 2.23s-.97 2.23-2.166 2.23zM648.81 378.796h-17.966c-1.041 0-1.885-.869-1.885-1.941s.844-1.941 1.885-1.941h17.966c1.041 0 1.885.869 1.885 1.941s-.844 1.941-1.885 1.941zM587.621 562.176H475.588c-1.196 0-2.165-.998-2.165-2.23s.97-2.23 2.165-2.23H587.62c1.196 0 2.166.998 2.166 2.23s-.969 2.23-2.165 2.23zM844.19 562.176H599.611c-1.196 0-2.165-.998-2.165-2.23s.969-2.23 2.165-2.23H844.19c1.196 0 2.165.998 2.165 2.23.001 1.232-.969 2.23-2.165 2.23zM876.232 562.176h-17.966c-1.041 0-1.885-.869-1.885-1.941s.844-1.941 1.885-1.941h17.966c1.041 0 1.885.869 1.885 1.941-.001 1.072-.844 1.941-1.885 1.941zM875.951 585.217H475.588c-1.196 0-2.165-.998-2.165-2.23 0-1.231.97-2.23 2.165-2.23H875.95c1.196 0 2.166.998 2.166 2.23s-.969 2.23-2.165 2.23zM587.621 628.821H475.588c-1.196 0-2.165-.998-2.165-2.23 0-1.231.97-2.23 2.165-2.23H587.62c1.196 0 2.166.998 2.166 2.23s-.969 2.23-2.165 2.23zM844.19 628.821H599.611c-1.196 0-2.165-.998-2.165-2.23 0-1.231.969-2.23 2.165-2.23H844.19c1.196 0 2.165.998 2.165 2.23.001 1.232-.969 2.23-2.165 2.23zM624.234 605.78H475.588c-1.196 0-2.165-.999-2.165-2.23 0-1.232.97-2.23 2.165-2.23h148.645c1.196 0 2.165.998 2.165 2.23.001 1.232-.968 2.23-2.164 2.23zM875.951 605.78H646.25c-1.196 0-2.166-.999-2.166-2.23 0-1.232.97-2.23 2.166-2.23h229.701c1.196 0 2.166.998 2.166 2.23-.001 1.232-.97 2.23-2.166 2.23zM876.232 628.821h-17.966c-1.041 0-1.885-.869-1.885-1.941s.844-1.941 1.885-1.941h17.966c1.041 0 1.885.869 1.885 1.941-.001 1.072-.844 1.941-1.885 1.941zM873.854 687.124H723.429a1.336 1.336 0 0 1-1.336-1.336v-1.209c0-.738.598-1.335 1.335-1.335h150.424c.738 0 1.335.598 1.335 1.335v1.209a1.333 1.333 0 0 1-1.333 1.336zM873.854 709.342h-91.458a1.335 1.335 0 0 1-1.335-1.335v-1.209c0-.738.598-1.335 1.335-1.335h91.458c.738 0 1.336.598 1.336 1.335v1.209a1.337 1.337 0 0 1-1.336 1.335zM764.358 709.342h-31.34a1.336 1.336 0 0 1-1.336-1.336v-1.209c0-.738.598-1.335 1.335-1.335h31.341c.737 0 1.335.598 1.335 1.335v1.209c0 .738-.598 1.336-1.335 1.336z"/><path fill="#3E4057" d="m964.744 182.098-16.437 56.984c-2.021 7.008-8.334 11.809-15.428 11.823a228.76 228.76 0 0 1-6.941-.091c-38.653-1.105-74.707-12.145-108.076-33.17-5.948-3.748-8.62-11.186-6.617-18.131l16.428-56.953 137.071 39.538z"/><path fill="#2C2D3D" d="m964.744 182.098-16.437 56.984c-2.021 7.008-8.334 11.809-15.428 11.823a228.76 228.76 0 0 1-6.941-.091c5.862-8.68 11.68-18.853 12.624-26.17 1.994-15.449-23.794-2.646-59.753-11.338-25.602-6.183-48.908-27.517-60.207-39.3l9.071-31.446 137.071 39.538z"/><path fill="#6B6F96" d="m790.897 129.866 115.201-7.228c.793-.05 1.58.176 2.226.64l94.309 67.649c2.634 1.89 1.442 6.04-1.794 6.243l-115.201 7.228a3.445 3.445 0 0 1-2.226-.64l-94.309-67.649c-2.634-1.889-1.441-6.04 1.794-6.243z"/><path fill="#3E4057" d="m905.763 127.998-109.269 6.856 89.479 64.184 109.269-6.856z"/><path fill="#2C2D3D" d="m905.763 127.998-12.201.765 46.786 33.56c9.757 6.999 5.204 22.841-6.78 23.593l-60.587 3.801 12.993 9.32 109.268-6.856-89.479-64.183z"/><ellipse cx="899.594" cy="158.861" fill="#2C2D3D" rx="4.018" ry="9.992" transform="rotate(-73.907 899.634 158.85)"/><ellipse cx="899.594" cy="158.861" fill="#FFBC47" rx="2.897" ry="7.204" transform="rotate(-73.907 899.634 158.85)"/><path fill="#FFBC47" d="m920.065 276.092-1.994-.575 21.418-74.252-40.636-41.644 1.482-1.521 41.498 42.526z"/><path fill="#FFC154" d="M916.985 274.458c-3.961 7.858-7.166 16.384-9.826 24.935a186.876 186.876 0 0 0-1.581 5.354c-.17.607-.412 1.266-.426 1.882-.009.385.316.51.516.149.228-.413.33-.869.457-1.332a187.975 187.975 0 0 1 1.409-4.863 195.918 195.918 0 0 1 2.072-6.421 216.713 216.713 0 0 1 4.709-12.458c.968-2.347 1.984-4.668 2.995-6.99.148-.338-.156-.589-.325-.256zM917.943 275.159c-3.665 8.569-6.759 17.43-9.469 26.428a329.975 329.975 0 0 0-1.657 5.696c-.174.618-.417 1.275-.457 1.904-.028.443.353.465.519.146l.007.005c.235-.461.343-.981.483-1.485a294.057 294.057 0 0 1 1.456-5.069 314.18 314.18 0 0 1 2.098-6.801 362.178 362.178 0 0 1 4.506-13.2c.911-2.504 1.801-5.018 2.732-7.513.069-.186-.14-.295-.218-.111zM913.283 310.085c.611-2.671 1.113-5.367 1.66-8.047l1.669-8.182c1.106-5.421 2.117-10.85 3.161-16.278.068-.353-.297-.475-.376-.109-.148.685-.298 1.369-.447 2.053-.034.01-.054.073-.019.089-1.029 4.722-2.069 9.443-3.039 14.173l-1.65 8.05c-.559 2.727-1.166 5.458-1.659 8.19-.106.588.543.586.695.056 0 .003.003.004.005.005zM911.448 303.352c.327-1.281.66-2.561.999-3.839a499.749 499.749 0 0 1 2.135-7.78c.719-2.546 1.47-5.082 2.214-7.621.755-2.577 1.595-5.138 2.298-7.729.088-.325-.22-.394-.333-.096-.936 2.461-1.713 5.013-2.511 7.53a303.756 303.756 0 0 0-2.318 7.729 381.167 381.167 0 0 0-2.112 7.65 424.135 424.135 0 0 0-1.487 5.761c-.158.629-.37 1.287-.419 1.923-.029.385.367.564.542.156.478-1.118.689-2.499.992-3.684zM916.787 305.014c.113-.599.226-1.198.337-1.797.238-1.283.473-2.567.7-3.852.46-2.61.896-5.222 1.313-7.835.826-5.182 1.591-10.361 2.08-15.53.036-.384-.362-.329-.423.044-.845 5.146-1.58 10.293-2.419 15.439-.42 2.571-.86 5.141-1.32 7.71a649.035 649.035 0 0 1-1.035 5.649c-.13.689-.194 1.199-.158 1.856.014.251.291.279.4.036.269-.598.401-1.066.525-1.72zM921.863 274.319c-.012-.223-.296-.15-.3.084-.087 4.754-.23 9.548-.601 14.362a166.457 166.457 0 0 1-1.776 14.54c-.112.671.643.592.752-.079 1.573-9.682 2.439-19.585 1.925-28.907zM917.052 273.609c-2.957 3.57-5.481 7.853-7.708 12.255a96.201 96.201 0 0 0-3.116 6.81c-.951 2.313-1.888 4.697-2.621 7.108-.197.65.465.824.682.197.826-2.389 1.628-4.76 2.586-7.09a95.94 95.94 0 0 1 3.011-6.599c2.205-4.384 4.752-8.416 7.333-12.426.127-.2-.016-.438-.167-.255z"/><ellipse cx="919.165" cy="275.468" fill="#FFBC47" rx="4.254" ry="4.129" transform="rotate(-73.907 919.208 275.462)"/><path fill="#39ABCC" d="M538.976 740.353c-1.614 57.04-48.162 102.002-103.961 100.423a98.792 98.792 0 0 1-30.385-5.666c-40.501-14.385-69.037-54.311-67.73-100.476.829-29.311 13.536-55.445 33.258-73.684 18.643-17.281 43.587-27.506 70.703-26.738 55.799 1.579 99.729 49.103 98.115 106.141z"/><path fill="#2FA0C2" d="M473.995 640.902c14.713 18.513 23.253 42.302 22.525 68.028-1.614 57.04-48.162 102.002-103.961 100.423a98.792 98.792 0 0 1-30.385-5.666 96.941 96.941 0 0 1-2.743-1.026c11.688 14.704 27.27 26.081 45.199 32.448a98.827 98.827 0 0 0 30.385 5.666c55.799 1.579 102.346-43.384 103.961-100.423 1.277-45.11-25.939-84.264-64.981-99.45z"/><path fill="#2C98B8" d="M480.959 643.924c25.952 19.371 42.437 51.05 41.436 86.386-1.614 57.04-48.162 102.002-103.961 100.423a98.792 98.792 0 0 1-40.109-9.719 99.824 99.824 0 0 0 26.304 14.097 98.827 98.827 0 0 0 30.385 5.666c55.799 1.579 102.346-43.384 103.961-100.423 1.201-42.378-22.745-79.497-58.016-96.43z"/><path fill="#D2FCF8" d="M495.467 680.736c-1.474 3.806-.447 4.7-1.748 6.231-1.801 2.133-4.279.898-6.364 2.961-1.792 1.77-1.761 4.456-1.748 6.231.049 6.019 3.633 6.966 4.355 12.688.243 1.89-.279.81-1.881 10.94-.783 4.908-.934 6.899-1.881 10.94-.748 3.182-1.124 4.775-1.748 6.231-1.514 3.54-2.93 4.253-8.156 10.763-3.792 4.731-3.288 4.634-4.885 6.143-2.16 2.027-4.664 3.386-9.59 6.01-4.753 2.536-7.13 3.788-9.55 4.443-5.032 1.35-5.386-.106-9.457 1.301-5.027 1.744-5.669 4.364-9.55 4.443-1.257.027-2.921-.571-6.231-1.748-3.156-1.124-5.466-2.244-7.758-3.359-3.067-1.5-4.585-2.235-6.187-3.319-3.855-2.602-3.527-3.616-6.142-4.881-.81-.385-5.563-2.686-9.418-.27-.367.226-2.845 1.837-3.27 4.62-.407 2.673 1.536 3.403 2.916 7.935 1.049 3.47.173 3.917 1.345 7.89.974 3.31 1.46 4.957 2.961 6.364 1.686 1.571 4.775 2.226 10.895 3.452 2.952.584 4.328.748 4.664 1.699.509 1.429-1.673 3.567-3.27 4.62-3.779 2.483-8.245 1.557-9.462 1.301-1.921-.398-1.611-.717-4.664-1.699-3.89-1.257-7.05-1.598-9.369-1.837-2.522-.261-4.297-.248-7.846-.221-7.714.049-8.816.739-9.457 1.301-1.916 1.659-2.793 4.788-1.748 6.231.89 1.235 2.536.279 4.665 1.704 2.173 1.46 2.819 4.054 3.005 4.797.788 3.164-.823 3.996-.181 6.275.872 3.089 4.138 2.66 7.669 6.497 3 3.261 1.491 4.474 4.488 7.983 1.642 1.912 2.456 1.983 9.236 6.541 2.191 1.474 3.62 2.491 4.527 3.173-40.502-14.383-69.037-54.309-67.732-100.476.832-29.31 13.537-55.442 33.262-73.684-1.991 4.293-3.204 8.2-1.615 9.913 1.292 1.403 3.093 1.655 3.093 1.655a4.03 4.03 0 0 0 1.624-.088c-15.007 16.861-20.176 36.51-11.25 48.313 9.439 12.484 31.615 12.183 53.048.531.42.323.699.65.704 1.177.022 1.558-2.377 1.961-3.271 4.62-.226.686-.77 2.288-.088 3.138 1.686 2.076 8.218-3.567 14.166-1.168.204.084 3.832 1.598 4.576 4.842.894 3.934-3.138 7.559-3.363 7.753-3.461 3.027-7.076 2.063-7.979 4.487-.73 1.987 1.089 4.302 1.438 4.753 2.713 3.452 7.784 3.452 10.896 3.448.814.009 3.987-.044 7.89-1.35 4.058-1.359 3.819-2.385 6.364-2.956 5.372-1.217 7.497 3.115 12.511 1.925 3.16-.744 6.173-3.39 6.452-6.103.195-1.814-.717-3.474-1.434-4.753-.739-1.31-1.584-2.7-3.049-3.226-2.253-.801-3.425 1.376-6.324 1.394-4.195.018-8.307-4.518-7.669-6.501.23-.699.903-.615 1.615-1.522 1.31-1.669 1.12-4.576.177-6.275-2.354-4.262-10.364-2.655-10.851-5.018-.367-1.806 4.262-2.757 4.886-6.147.757-4.115-5.492-6.727-4.439-9.545 1.288-3.465 10.201-3.231 14.21-2.74 3.049.385 4.598.571 6.231 1.748 4.877 3.514 3.266 10.502 5.965 11.161 2.217.531 6.209-3.501 6.501-7.669.288-4.089-3.195-5.381-2.872-9.501.168-2.151 1.761-4.036 4.93-7.714 2.987-3.483 5.417-5.55 9.679-9.147 5.439-4.589 7.045-5.913 9.594-6.014 1.651-.062 4.089.337 4.664 1.704.437 1.062-.621 1.863-1.705 4.661z"/><path fill="#D2FCF8" d="M408.755 679.233c-.712-2.652-1.016-6.717.203-7.182 1.357-.517 2.768 4.122 7.047 4.991 2.178.442 2.717-.576 4.789.136 1.974.678 4.222 2.543 4.652 4.923.377 2.091-.924 3.052-.136 4.789.674 1.484 1.833 1.243 2.326 2.462.859 2.126-2.332 3.694-2.597 7.114-.289 3.72 3.173 5.896 2.191 7.251-.78 1.076-3.475.402-4.788-.136-.342-.14-3.814-1.622-4.653-4.924-.77-3.032 1.434-4.615.203-7.183-.184-.381-.258-.404-2.326-2.462-2.646-2.634-3.982-3.971-4.652-4.924a15.602 15.602 0 0 1-2.259-4.855zM441.627 800.229c-2.302.187-5.541-.545-6.005-2.214-.552-1.985 3.405-3.213 3.301-6.59-.032-1.044-.254-2.164-.167-4.294.018-.439.102-.932.305-1.53.815-2.404 3.07-5.149 5.963-5.684 2.54-.47 3.715 1.107 5.822.139 1.801-.828 1.502-2.236 2.98-2.842 2.59-1.062 4.476 2.924 8.666 3.119 4.13.192 6.294-3.474 8.068-2.334 1.393.895 1.102 3.828.597 5.453-.76 2.449-3.096 4.942-5.961 5.685-3.683.954-5.619-1.719-8.735-.208-.463.225-.491.317-2.981 2.843-3.187 3.232-4.804 4.864-5.961 5.685-1.968 1.396-3.55 2.581-5.892 2.772z"/><path fill="#DEFFFC" d="M415.061 721.273c-21.433 11.652-43.609 11.953-53.048-.531-8.926-11.803-3.757-31.452 11.25-48.313.991-.257 1.903-.832 3.124-1.345 0 0 3.611-1.549 7.891-1.35 2.668.124 7.24 1.084 7.758 3.363.434 1.881-2.239 3.155-1.704 4.66.743 2.067 6.014.611 7.758 3.363.858 1.341.659 3.363-.133 4.709-2.407 4.058-10.612 2.146-11.117 4.395-.252 1.137 1.607 2.62 3.049 3.226 1.474.624 2.784.443 4.709.133 7.634-1.244 8.045-1.828 9.457-1.301 2.66 1 4.169 4.2 4.531 6.408.332 2.053-.429 2.425-.133 4.709.398 3.058 1.885 3.209 2.96 6.364 1.536 4.554-.757 6.656 1.301 9.461.802 1.097 1.727 1.57 2.347 2.049z"/><path fill="#53BDDB" d="M426.478 713.9a89.964 89.964 0 0 1-11.418 7.373c-.62-.478-1.545-.952-2.346-2.049-2.058-2.805.235-4.908-1.301-9.461-1.075-3.155-2.562-3.306-2.96-6.364-.297-2.283.465-2.655.133-4.709-.363-2.208-1.872-5.408-4.531-6.408-1.412-.527-1.823.057-9.457 1.301-1.925.31-3.235.491-4.709-.133-1.443-.606-3.301-2.089-3.049-3.226.504-2.248 8.709-.337 11.117-4.395.792-1.345.991-3.368.133-4.709-1.744-2.753-7.014-1.297-7.758-3.363-.536-1.505 2.137-2.779 1.704-4.66-.518-2.279-5.089-3.24-7.758-3.363-4.279-.199-7.891 1.35-7.891 1.35-1.221.513-2.133 1.089-3.124 1.345 3.713-4.178 8.028-8.178 12.882-11.851 24.468-18.507 53.331-21.57 64.466-6.846 11.138 14.723.336 41.661-24.133 60.168z"/><path fill="#E35669" d="M478.517 252.758v102.997l-28.181-15.059-12.804-6.846-12.805 6.846-28.181 15.059V252.758z"/><path fill="#FFF" d="M450.336 252.758v87.938l-12.804-6.846-12.805 6.846v-87.938z"/><circle cx="435.04" cy="200.08" r="90.278" fill="#FFBC47"/><circle cx="435.04" cy="200.08" r="74.752" fill="#FFF"/><circle cx="435.04" cy="200.08" r="67.349" fill="#FFBC47"/><path fill="#FFF" d="M474.154 186.933h-23.551a4.357 4.357 0 0 1-4.143-3.01l-7.278-22.398c-1.304-4.013-6.981-4.013-8.285 0l-7.278 22.398a4.356 4.356 0 0 1-4.143 3.01h-23.551c-4.22 0-5.974 5.399-2.56 7.88l19.053 13.843a4.355 4.355 0 0 1 1.582 4.87l-7.278 22.398c-1.304 4.013 3.289 7.35 6.703 4.87l19.053-13.843a4.356 4.356 0 0 1 5.12 0l19.053 13.843c3.414 2.48 8.007-.857 6.703-4.87l-7.278-22.398a4.357 4.357 0 0 1 1.582-4.87l19.053-13.843c3.417-2.481 1.663-7.88-2.557-7.88z"/><path fill="#D4D5EB" d="M482.996 805.37c.019 13.449 7.502 24.346 16.716 24.333s16.666-10.931 16.647-24.38c-.019-13.458-7.502-24.355-16.716-24.342-9.214.013-16.666 10.932-16.647 24.389z"/><path fill="#A7A9D1" d="m499.712 829.707 37.683-.053-.023-16.618-43.433.061c-3.713 4.789-5.05 16.626 5.773 16.61z"/><path fill="#FFF" d="m499.712 829.704 211.939-.299c13.454-.019 24.346-10.941 24.327-24.396-.019-13.454-10.941-24.346-24.396-24.327l-211.939.299c9.214-.013 16.697 10.884 16.716 24.342.019 13.449-7.433 24.368-16.647 24.381z"/><path fill="#E7E7F5" d="M714.756 780.89a24.244 24.244 0 0 1 4.526 14.101c.019 13.454-10.872 24.377-24.327 24.396l-181.765.257c-3.025 6.088-7.931 10.053-13.479 10.061l211.939-.299c13.454-.019 24.346-10.941 24.327-24.396-.017-12.379-9.265-22.58-21.221-24.12z"/><path fill="#E35669" d="m601.745 780.845 7.402-.01.068 48.722-7.402.01z"/><path fill="#E35669" d="M585.406 817.453c-5.603.008-9.118-2.243-11.154-4.295-5.284-5.325-5.796-14.954-1.165-21.921 1.708-2.569 4.192-4.047 7.184-4.275 10.655-.842 25.747 15.359 27.428 17.206l-1.666 1.518 2.072 3.167c-9.895 6.468-17.276 8.592-22.699 8.6zm-4.282-24.551c-.136 0-.27.005-.402.016-1.151.088-1.972.589-2.661 1.625-3.067 4.615-2.874 11.077.43 14.406 4.107 4.135 12.464 3.021 22.758-2.894-5.793-5.844-14.825-13.161-20.125-13.153z"/><path fill="#E35669" d="M638.892 862.688c-.704-.266-17.27-6.765-17.938-27.414-.349-10.807-7.083-18.574-11.955-22.805a77.839 77.839 0 0 1-6.115-3.61l.346-.532-2.443-1.397 2.489-2.757c1.676-1.852 16.698-18.065 27.379-17.283 2.993.219 5.481 1.69 7.196 4.255 4.651 6.955 4.166 16.586-1.103 21.925-2.543 2.576-7.402 5.469-15.786 3.864 3.19 4.79 5.726 10.85 5.963 18.147.54 16.709 13.944 21.968 14.08 22.019l-3.397 1.239 1.284 4.349zm-26.465-55.192c9.066 4.586 16.341 5.154 20.07 1.377 3.294-3.338 3.469-9.801.389-14.408-.692-1.035-1.514-1.533-2.667-1.618-5.16-.379-14.185 6.874-20.116 12.82a46.925 46.925 0 0 1 2.324 1.829z"/><path fill="#E35669" d="m568.075 860.149 1.926-4.053-3.506-1.708c.765-.213 18.83-5.406 16.699-19.692-2.845-19.063 19.988-30.705 20.962-31.191l2.67 5.344-1.335-2.672 1.338 2.67c-.199.1-19.93 10.198-17.726 24.967 2.331 15.631-12.736 24.061-21.028 26.335z"/><path fill="#FFBC47" d="m956.098 764.28.275 52.944c-2.696 3.839-9.457 7.263-18.938 9.888-11.758 3.262-27.705 5.282-45.252 5.324-22.13.053-41.754-3.057-53.651-7.862-5.14-2.067-8.851-4.453-10.695-7.04l-.275-52.944 128.536-.31z"/><path fill="#F0AA30" d="m956.166 777.778.021 4.145c-10.146 7.62-34.735 12.913-64.201 12.984-29.466.071-54.109-5.105-64.335-12.675l-.021-4.145c6.12 8.564 32.661 14.98 64.346 14.904 31.686-.077 58.16-6.621 64.19-15.213z"/><path fill="#F0AA30" d="m956.235 790.926.021 4.145c-10.146 7.62-34.735 12.913-64.201 12.984-29.466.071-54.109-5.105-64.335-12.675l-.021-4.145c6.12 8.564 32.661 14.98 64.346 14.904 31.685-.076 58.159-6.62 64.19-15.213z"/><path fill="#F0AA30" d="m956.303 804.075.022 4.145c-10.146 7.62-34.735 12.913-64.202 12.984-29.466.071-54.109-5.104-64.335-12.675l-.022-4.145c6.12 8.564 32.661 14.981 64.346 14.904 31.686-.076 58.16-6.62 64.191-15.213z"/><path fill="#999" d="m838.22 764.563.312 60.01c-5.14-2.067-8.851-4.453-10.695-7.04l-.275-52.944 10.658-.026z"/><path fill="#E6E7E8" d="m956.098 764.28.275 52.944c-2.696 3.839-9.457 7.263-18.938 9.888l-.326-62.786 18.989-.046z"/><ellipse cx="891.829" cy="764.178" fill="#FFBC47" rx="64.203" ry="18.413" transform="translate(-1.644 1.923)"/><path fill="#FFBC47" d="M891.744 747.838c-27.726.067-52.202 6.215-54.896 14.445-2.992 9.14 21.521 17.262 55.061 17.182 33.539-.081 57.968-8.321 54.881-17.446-2.781-8.217-27.32-14.247-55.046-14.181zm.157 30.304c-30.976.074-53.803-7.399-51.226-15.868 2.337-7.682 25.123-13.457 51.073-13.52 25.95-.062 48.795 5.603 51.212 13.274 2.666 8.457-20.083 16.04-51.059 16.114z"/><path fill="#FFBC47" d="M891.733 745.767c-31.746.076-60.108 7.058-63.717 16.537-4.078 10.707 24.304 20.381 63.909 20.286 39.605-.095 67.885-9.905 63.696-20.593-3.708-9.461-32.142-16.306-63.888-16.23zm.175 33.698c-33.539.081-58.053-8.042-55.061-17.182 2.695-8.229 27.171-14.378 54.896-14.445 27.726-.067 52.265 5.964 55.045 14.18 3.088 9.126-21.34 17.366-54.88 17.447z"/><path fill="#F0AA30" d="M891.744 747.838c-27.726.067-52.202 6.215-54.896 14.445-2.992 9.14 21.521 17.262 55.061 17.182 33.539-.081 57.968-8.321 54.881-17.446-2.781-8.217-27.32-14.247-55.046-14.181zm.157 30.304c-30.976.074-53.803-7.399-51.226-15.868 2.337-7.682 25.123-13.457 51.073-13.52 25.95-.062 48.795 5.603 51.212 13.274 2.666 8.457-20.083 16.04-51.059 16.114z"/><path fill="#FFBC47" d="M942.961 762.028c2.665 8.457-20.084 16.04-51.06 16.114-30.976.074-53.803-7.399-51.226-15.868 2.337-7.682 25.123-13.457 51.073-13.52 25.951-.062 48.796 5.603 51.213 13.274z"/><path fill="#F0AA30" d="M913.308 767.942c-.372-2.846-6.118-4.385-17.044-5.576l-.198-6.178c5.19.042 9.063.504 11.027.792l2.042-1.822c-2.716-.407-7.13-.784-13.128-.798l-.075-2.321-6.456.016-.024 2.487c-8.78.549-14.472 2.309-14.7 4.585-.237 2.372 5.284 3.887 14.609 4.949l-.073 7.602c-5.773-.047-11.154-.622-14.85-1.306l-2.474 2.253c3.569.727 10.673 1.301 17.303 1.306l-.029 3.027 7.493-.018-.103-3.219c11.657-.717 17.025-3.138 16.68-5.779zm-30.193-9.101c.044-.896 1.894-1.911 6.319-2.385l-.048 5.04c-4.36-.691-6.329-1.458-6.271-2.655zm13.438 12.544-.208-6.476c5.578.822 7.951 1.776 8.068 3.261.118 1.504-2.696 2.688-7.86 3.215z"/><path fill="#FFF7BC" d="M912.121 766.725c-.35-2.806-6.045-4.323-16.887-5.498l-.159-6.095c5.155.041 8.999.497 10.949.781l2.04-1.798c-2.696-.401-7.078-.773-13.036-.787l-.06-2.291-6.414.015-.038 2.455c-8.726.542-14.389 2.279-14.627 4.525-.248 2.34 5.227 3.834 14.481 4.881l-.117 7.494c-5.731-.046-11.069-.613-14.735-1.287l-2.468 2.22c3.539.716 10.588 1.282 17.169 1.287l-.047 2.982 7.437-.018-.083-3.171c11.573-.705 16.919-3.091 16.595-5.695zm-29.926-8.974c.048-.884 1.892-1.886 6.29-2.353l-.078 4.972c-4.325-.682-6.276-1.438-6.212-2.619zm13.27 12.369-.166-6.384c5.533.811 7.884 1.751 7.99 3.215.107 1.482-2.694 2.649-7.824 3.169z"/><path fill="#F0AA30" d="M889.272 781.72h-.037c-1.89-.018-3.792-.063-5.647-.132-.513-.019-.87-.167-.799-.33.071-.163.546-.284 1.052-.26 1.799.066 3.64.109 5.472.127.515.005.916.142.897.305-.021.162-.437.289-.938.29zm5.596-.019c-.499.001-.915-.123-.94-.282-.026-.164.371-.303.885-.312 1.825-.03 3.663-.085 5.466-.164.498-.025.984.091 1.061.253.075.162-.279.312-.789.335-1.86.082-3.759.139-5.641.17h-.042zm-16.652-.39c-.064 0-.13-.002-.195-.006a188.701 188.701 0 0 1-5.438-.432c-.489-.046-.75-.21-.585-.366.165-.156.695-.245 1.179-.199 1.725.162 3.498.302 5.271.416.5.033.812.188.697.348-.103.141-.499.238-.929.239zm27.697-.094c-.431.001-.825-.093-.931-.231-.122-.159.185-.317.684-.353 1.773-.127 3.539-.279 5.253-.452.485-.049 1.013.037 1.184.191.171.155-.087.321-.573.37-1.766.179-3.591.337-5.419.469a3.322 3.322 0 0 1-.198.006zm-38.246-.899c-.114 0-.23-.006-.34-.02a151.662 151.662 0 0 1-5.026-.713c-.444-.071-.601-.245-.35-.389.252-.144.818-.202 1.261-.132 1.574.25 3.212.482 4.869.689.469.058.68.228.473.378-.159.115-.519.186-.887.187zm48.75-.165c-.367.001-.724-.067-.887-.181-.212-.149-.005-.32.461-.381 1.639-.216 3.266-.459 4.839-.72.437-.072 1.007-.019 1.262.124.257.142.105.317-.338.391-1.622.271-3.301.521-4.992.745a3.014 3.014 0 0 1-.345.022zm-58.387-1.367c-.166 0-.329-.013-.473-.041-1.52-.298-3.011-.621-4.43-.958-.388-.092-.438-.27-.113-.397.33-.127.907-.155 1.291-.064 1.38.327 2.825.639 4.3.927.42.082.523.258.235.395-.189.088-.5.138-.81.138zm67.959-.227c-.308.001-.617-.047-.809-.134-.293-.134-.193-.311.221-.396 1.472-.299 2.905-.621 4.264-.955.383-.094.96-.071 1.293.055.33.125.286.303-.099.398-1.4.345-2.878.677-4.393.987-.145.03-.31.044-.477.045zm-76.354-1.769a2.189 2.189 0 0 1-.584-.068 73.905 73.905 0 0 1-3.696-1.16c-.32-.109-.264-.286.122-.393.388-.106.959-.105 1.275.004 1.133.388 2.342.765 3.594 1.122.355.102.355.279-.005.397a2.38 2.38 0 0 1-.706.098zm84.676-.282a2.41 2.41 0 0 1-.704-.093c-.362-.116-.368-.293-.016-.397a71.364 71.364 0 0 0 3.553-1.146c.317-.111.886-.116 1.274-.012.39.104.451.28.137.392-1.15.408-2.38.807-3.657 1.184a2.24 2.24 0 0 1-.587.072zm-91.577-2.09c-.26.001-.51-.033-.669-.099a41.98 41.98 0 0 1-2.865-1.314c-.24-.122-.086-.291.344-.375.433-.084.975-.055 1.218.068.857.433 1.797.861 2.791 1.272.282.117.178.289-.233.386-.18.041-.386.062-.586.062zm98.394-.327c-.198 0-.402-.019-.58-.059-.413-.094-.522-.266-.245-.384.978-.416 1.903-.85 2.749-1.29.239-.124.786-.157 1.214-.076.434.082.593.249.356.373-.869.455-1.818.903-2.822 1.333-.158.067-.41.102-.672.103zm-103.625-2.325c-.308.001-.594-.047-.73-.133a19.998 19.998 0 0 1-1.972-1.418c-.158-.131.086-.286.545-.347.454-.061.961-.005 1.121.126.569.465 1.216.928 1.926 1.374.202.127.003.29-.445.363a2.852 2.852 0 0 1-.445.035zm108.769-.361c-.147 0-.297-.01-.441-.032-.45-.07-.654-.232-.456-.36a18.988 18.988 0 0 0 1.882-1.387c.159-.132.661-.19 1.115-.133.461.058.71.212.556.344-.567.483-1.214.964-1.927 1.431-.133.087-.42.136-.729.137zm-112.217-2.472c-.357.001-.67-.064-.763-.169a8.332 8.332 0 0 1-1.05-1.473c-.075-.135.249-.273.72-.31.478-.036.915.043.991.177.266.474.614.954 1.034 1.428.118.133-.165.281-.633.33-.1.012-.202.017-.299.017zm115.574-.385c-.095 0-.195-.004-.294-.014-.468-.046-.757-.192-.643-.326.399-.471.731-.953.987-1.434.073-.135.518-.217.984-.184.473.034.8.17.73.305a8.127 8.127 0 0 1-1.003 1.478c-.088.107-.402.174-.761.175zm-117.212-2.533c-.408.001-.74-.083-.769-.204a4.995 4.995 0 0 1-.145-1.478c.006-.134.394-.253.864-.266.445-.016.845.085.839.22-.02.475.031.957.154 1.435.036.135-.319.265-.794.29-.05.001-.099.003-.149.003zm118.756-.394a3.41 3.41 0 0 1-.143-.003c-.475-.021-.834-.148-.805-.284.105-.48.141-.963.109-1.435-.01-.134.376-.23.833-.225.47.01.858.126.87.261.041.486.008.983-.096 1.477-.027.121-.359.208-.768.209zm-118.628-2.514c-.465.001-.803-.106-.756-.238l.022-.066c.174-.486.416-.97.725-1.443.083-.13.547-.229.975-.217.453.01.755.123.671.252-.295.46-.526.931-.689 1.399l-.023.071c-.046.132-.46.24-.925.242zm118.406-.391c-.463.001-.878-.105-.927-.237a6.676 6.676 0 0 0-.714-1.395c-.085-.129.212-.244.666-.256.428-.016.89.082.978.212.316.47.568.952.75 1.434.05.133-.286.241-.751.242h-.002zm-116.564-2.492c-.047 0-.093-.001-.139-.003-.443-.021-.703-.14-.583-.266.44-.458.949-.917 1.517-1.362.155-.121.622-.198 1.053-.166.427.031.649.154.495.276-.548.434-1.042.88-1.463 1.326-.108.113-.485.194-.88.195zm114.694-.31c-.394.001-.772-.078-.882-.19a14.049 14.049 0 0 0-1.483-1.318c-.157-.121.062-.246.488-.279.428-.033.898.04 1.054.16a14.78 14.78 0 0 1 1.541 1.354c.123.126-.135.246-.578.269a2.16 2.16 0 0 1-.14.004zm-111.343-2.336c-.091 0-.18-.004-.268-.012-.409-.041-.588-.168-.399-.285a30.256 30.256 0 0 1 2.24-1.254c.22-.112.711-.161 1.102-.113.388.049.528.179.31.291-.779.398-1.509.809-2.169 1.222-.147.092-.481.15-.816.151zm107.945-.291c-.335.001-.668-.056-.818-.147a29.056 29.056 0 0 0-2.185-1.208c-.22-.11-.084-.241.304-.293.391-.051.882-.003 1.103.107.808.403 1.568.82 2.259 1.241.19.116.014.245-.396.287a2.911 2.911 0 0 1-.267.013zm-103.203-2.128c-.133 0-.265-.008-.383-.027-.368-.058-.464-.19-.216-.296.895-.379 1.86-.755 2.87-1.118.276-.099.78-.125 1.118-.06.345.065.404.198.128.297-.979.354-1.915.721-2.784 1.091-.169.071-.453.112-.733.113zm98.429-.262c-.28.001-.565-.039-.733-.11a54.32 54.32 0 0 0-2.801-1.075c-.276-.097-.222-.231.121-.298.34-.066.843-.043 1.12.054 1.012.355 1.984.726 2.887 1.103.251.104.156.237-.209.297-.12.019-.252.028-.385.029zm-92.489-1.878c-.175 0-.346-.015-.484-.046-.319-.073-.334-.206-.035-.298a86.873 86.873 0 0 1 3.4-.963c.323-.083.819-.088 1.11-.009.293.079.271.211-.049.296a83.757 83.757 0 0 0-3.306.939c-.17.052-.406.08-.636.081zm86.516-.23c-.23 0-.464-.026-.636-.077a84.303 84.303 0 0 0-3.318-.921c-.322-.083-.347-.215-.055-.296.291-.08.789-.079 1.11.003a87.1 87.1 0 0 1 3.415.944c.3.09.286.223-.03.298-.138.032-.31.048-.486.049zm-79.575-1.594c-.217 0-.426-.023-.569-.069-.265-.085-.204-.216.137-.292a121.61 121.61 0 0 1 3.834-.791c.359-.068.841-.05 1.076.04.238.09.139.219-.219.287-1.275.243-2.529.503-3.729.772a2.601 2.601 0 0 1-.53.053zm72.605-.193a2.58 2.58 0 0 1-.528-.05 114.999 114.999 0 0 0-3.742-.752c-.36-.066-.46-.194-.225-.286.235-.091.718-.112 1.075-.046 1.312.241 2.607.501 3.847.771.341.074.405.205.143.291a1.968 1.968 0 0 1-.57.072zm-64.853-1.285c-.258.001-.506-.033-.641-.095-.206-.095-.071-.22.304-.28a158.51 158.51 0 0 1 4.17-.607c.385-.051.843-.013 1.02.086.177.099.007.22-.381.272-1.375.182-2.741.382-4.06.593-.13.021-.273.031-.412.031zm57.076-.151c-.139 0-.281-.009-.411-.029a150.267 150.267 0 0 0-4.072-.571c-.389-.049-.56-.17-.385-.269.175-.1.631-.14 1.017-.092 1.414.178 2.821.375 4.183.585.375.057.513.182.308.278-.134.062-.381.097-.64.098zm-48.701-.956c-.304.001-.585-.046-.696-.124-.146-.102.06-.219.458-.261a184.02 184.02 0 0 1 4.417-.413c.412-.034.829.025.943.129.113.105-.125.217-.533.25a174.92 174.92 0 0 0-4.301.403 2.502 2.502 0 0 1-.288.016zm40.302-.108c-.096 0-.193-.004-.287-.013a171.778 171.778 0 0 0-4.31-.38c-.409-.031-.648-.142-.536-.247.112-.105.529-.165.94-.135 1.483.113 2.971.244 4.424.389.4.04.607.156.464.259-.109.078-.39.126-.695.127zm-31.492-.612c-.353.001-.664-.062-.735-.155-.08-.107.191-.213.603-.237 1.504-.087 3.038-.159 4.56-.213.41-.014.797.06.847.169.05.108-.251.208-.669.223-1.484.053-2.979.123-4.443.208a2.27 2.27 0 0 1-.163.005zm22.668-.06c-.054 0-.107-.001-.16-.004a203.377 203.377 0 0 0-4.447-.184c-.418-.013-.72-.111-.672-.219.049-.108.432-.184.844-.173 1.519.046 3.054.109 4.562.188.415.022.687.126.609.233-.071.093-.384.158-.736.159zm-13.615-.261c-.407.001-.744-.081-.76-.188-.016-.109.312-.201.732-.207a208.17 208.17 0 0 1 4.61-.012c.421.003.749.094.735.203-.017.109-.404.193-.79.191a210.185 210.185 0 0 0-4.493.012l-.034.001z"/><path fill="#FFF7BC" d="M889.327 781.326h-.037c-1.89-.018-3.792-.063-5.647-.132-.513-.019-.87-.167-.799-.33.071-.163.546-.284 1.052-.26 1.799.066 3.64.109 5.472.127.514.005.915.142.896.305-.02.162-.436.289-.937.29zm5.595-.019c-.499.001-.915-.123-.94-.282-.026-.164.371-.303.885-.312 1.825-.03 3.663-.085 5.466-.164.498-.025.984.091 1.061.253.075.162-.278.313-.789.335-1.86.081-3.759.139-5.641.17h-.042zm-16.651-.389c-.064 0-.13-.002-.195-.006a188.986 188.986 0 0 1-5.438-.432c-.489-.046-.75-.21-.585-.366.165-.156.695-.245 1.179-.199 1.725.162 3.498.302 5.271.417.5.033.812.188.696.348-.103.14-.498.237-.928.238zm27.696-.094c-.431.001-.825-.093-.93-.231-.122-.159.185-.317.684-.353 1.772-.127 3.539-.279 5.253-.452.485-.049 1.014.037 1.184.191.171.155-.087.321-.573.37-1.766.179-3.591.337-5.419.469a3.33 3.33 0 0 1-.199.006zm-38.245-.899a2.75 2.75 0 0 1-.341-.02 151.662 151.662 0 0 1-5.026-.713c-.444-.071-.601-.245-.35-.389.252-.144.818-.202 1.261-.132 1.574.25 3.212.481 4.869.689.469.058.68.228.473.378-.159.115-.518.186-.886.187zm48.75-.166c-.367.001-.725-.067-.887-.181-.212-.149-.005-.32.461-.381 1.639-.216 3.266-.459 4.839-.72.437-.072 1.007-.018 1.262.124.257.142.105.317-.338.391-1.622.27-3.301.521-4.992.745a2.62 2.62 0 0 1-.345.022zm-58.387-1.366c-.166 0-.329-.013-.473-.041-1.52-.298-3.011-.621-4.43-.958-.388-.092-.438-.27-.113-.397.33-.127.907-.155 1.291-.064 1.38.327 2.826.639 4.3.927.42.082.523.258.235.395-.189.088-.5.137-.81.138zm67.959-.228c-.308.001-.617-.047-.809-.134-.293-.134-.194-.311.221-.396 1.472-.299 2.905-.621 4.264-.955.383-.094.959-.071 1.293.055.33.125.286.303-.099.398-1.4.345-2.878.677-4.393.987-.146.03-.31.045-.477.045zm-76.355-1.768a2.189 2.189 0 0 1-.584-.068 74.234 74.234 0 0 1-3.696-1.16c-.32-.109-.264-.286.122-.393.388-.106.959-.105 1.275.004 1.133.388 2.342.765 3.594 1.122.355.101.355.279-.005.397a2.403 2.403 0 0 1-.706.098zm84.676-.283a2.41 2.41 0 0 1-.704-.093c-.362-.116-.368-.293-.017-.397a71.364 71.364 0 0 0 3.553-1.146c.317-.111.887-.116 1.274-.012.39.104.451.28.136.392-1.15.408-2.38.807-3.657 1.184-.16.048-.369.072-.585.072zm-91.576-2.089c-.26.001-.51-.033-.669-.099a41.79 41.79 0 0 1-2.866-1.314c-.24-.122-.086-.291.344-.375.433-.084.975-.055 1.218.068.857.433 1.797.861 2.791 1.272.282.117.178.289-.233.386a2.76 2.76 0 0 1-.585.062zm98.394-.328c-.198 0-.402-.019-.58-.059-.413-.094-.522-.266-.245-.384.978-.416 1.903-.85 2.748-1.29.24-.124.786-.157 1.214-.076.434.082.593.249.356.373-.869.455-1.818.903-2.822 1.333-.157.067-.409.103-.671.103zm-103.625-2.324c-.308.001-.594-.047-.73-.133a20.117 20.117 0 0 1-1.972-1.418c-.158-.131.086-.286.546-.347.453-.061.961-.005 1.121.126.569.465 1.216.928 1.926 1.374.202.127.003.29-.445.363a3.003 3.003 0 0 1-.446.035zm108.769-.361c-.147 0-.297-.01-.441-.032-.449-.07-.654-.232-.456-.36a18.988 18.988 0 0 0 1.882-1.387c.159-.132.661-.19 1.115-.133.461.058.71.212.556.344-.567.483-1.214.964-1.927 1.431-.133.086-.42.136-.729.137zM834.11 768.54c-.358.001-.671-.064-.763-.169a8.355 8.355 0 0 1-1.051-1.473c-.075-.135.249-.273.72-.31.478-.036.915.043.991.177.266.474.614.954 1.034 1.428.118.133-.165.281-.633.33a3.01 3.01 0 0 1-.298.017zm115.574-.385c-.095 0-.195-.004-.294-.014-.468-.046-.757-.192-.643-.326.399-.471.732-.953.987-1.434.073-.135.518-.217.984-.184.473.034.8.17.73.305a8.127 8.127 0 0 1-1.003 1.478c-.088.107-.402.174-.761.175zm-117.213-2.534c-.408.001-.74-.083-.769-.204a4.995 4.995 0 0 1-.145-1.478c.006-.134.394-.253.864-.266.445-.016.844.085.839.22-.02.475.031.957.155 1.435.035.135-.32.265-.794.29-.05.002-.099.003-.15.003zm118.757-.393-.143-.003c-.474-.021-.834-.148-.804-.284.105-.48.141-.963.109-1.435-.01-.134.376-.23.833-.225.47.01.859.126.87.261.041.486.008.983-.096 1.477-.028.121-.36.208-.769.209zM832.6 762.713c-.465.001-.803-.106-.756-.238l.022-.066c.174-.486.417-.97.725-1.443.084-.13.547-.229.975-.217.452.01.754.122.671.252-.294.46-.527.931-.689 1.399l-.023.071c-.046.133-.46.241-.925.242zm118.406-.391c-.463.001-.878-.105-.927-.237a6.725 6.725 0 0 0-.714-1.395c-.085-.129.212-.244.666-.256.428-.016.89.082.978.212.316.47.568.952.75 1.434.05.133-.286.241-.751.242h-.002zm-116.564-2.492c-.047 0-.093-.001-.139-.003-.443-.021-.703-.14-.583-.266.44-.458.949-.917 1.517-1.362.155-.121.622-.198 1.053-.165.427.03.649.154.495.276-.548.434-1.042.88-1.463 1.326-.108.112-.485.193-.88.194zm114.694-.309c-.394.001-.773-.078-.882-.19a14.049 14.049 0 0 0-1.483-1.318c-.157-.121.062-.246.488-.279.428-.033.898.04 1.055.16a14.78 14.78 0 0 1 1.541 1.354c.123.126-.135.246-.578.269a3.318 3.318 0 0 1-.141.004zm-111.343-2.337c-.091 0-.18-.004-.268-.012-.409-.041-.588-.168-.399-.285a30.256 30.256 0 0 1 2.24-1.254c.22-.112.711-.161 1.102-.113.388.049.528.179.31.291-.779.398-1.509.809-2.169 1.222-.148.092-.481.151-.816.151zm107.944-.291c-.335.001-.667-.056-.818-.147a29.056 29.056 0 0 0-2.185-1.208c-.22-.11-.084-.241.304-.293.391-.051.882-.003 1.103.107.808.403 1.569.82 2.259 1.241.19.116.014.245-.396.287a2.568 2.568 0 0 1-.267.013zm-103.202-2.127c-.133 0-.265-.008-.383-.027-.368-.058-.464-.19-.216-.296.895-.379 1.86-.755 2.87-1.118.275-.099.78-.125 1.117-.06.346.065.404.198.129.297-.979.354-1.916.721-2.784 1.091-.168.071-.453.112-.733.113zm98.429-.263c-.28.001-.565-.039-.733-.11a54.675 54.675 0 0 0-2.801-1.075c-.276-.097-.222-.231.121-.298.34-.066.843-.043 1.119.054a53.9 53.9 0 0 1 2.888 1.103c.251.104.156.237-.21.297a2.474 2.474 0 0 1-.384.029zm-92.489-1.878c-.175 0-.346-.015-.484-.046-.319-.073-.334-.206-.035-.298a86.873 86.873 0 0 1 3.4-.963c.323-.083.82-.088 1.11-.009.293.079.271.211-.049.296a83.757 83.757 0 0 0-3.306.939 2.285 2.285 0 0 1-.636.081zm86.516-.23a2.39 2.39 0 0 1-.637-.077 83.824 83.824 0 0 0-3.318-.921c-.322-.083-.347-.215-.055-.296.292-.08.789-.079 1.11.003a87.1 87.1 0 0 1 3.415.944c.3.09.286.223-.03.298a2.156 2.156 0 0 1-.485.049zm-79.575-1.594c-.217 0-.426-.023-.57-.069-.265-.085-.204-.216.137-.292a121.61 121.61 0 0 1 3.834-.791c.359-.068.841-.05 1.076.04.238.09.139.219-.219.287-1.275.243-2.529.503-3.729.772a2.522 2.522 0 0 1-.529.053zm72.605-.192a2.58 2.58 0 0 1-.528-.05 114.999 114.999 0 0 0-3.742-.752c-.36-.066-.46-.194-.225-.286.235-.091.718-.112 1.075-.046 1.312.242 2.607.501 3.847.771.341.074.405.205.143.291a2.004 2.004 0 0 1-.57.072zm-64.853-1.285c-.258.001-.506-.033-.641-.095-.205-.095-.07-.22.304-.28a158.51 158.51 0 0 1 4.17-.607c.385-.051.843-.013 1.02.086.178.099.007.22-.381.272-1.375.182-2.741.382-4.06.593-.131.02-.273.03-.412.031zm57.076-.152c-.139 0-.282-.009-.411-.029a149.79 149.79 0 0 0-4.073-.571c-.389-.049-.56-.17-.385-.269.175-.1.631-.14 1.017-.092 1.414.178 2.821.375 4.183.585.375.057.513.182.308.278-.133.063-.38.098-.639.098zm-48.701-.956c-.305.001-.585-.046-.696-.124-.145-.102.061-.219.458-.261a184.02 184.02 0 0 1 4.417-.413c.412-.034.829.025.943.129.113.105-.125.217-.532.25a174.92 174.92 0 0 0-4.301.403 2.532 2.532 0 0 1-.289.016zm40.302-.107c-.096 0-.193-.004-.287-.013a171.363 171.363 0 0 0-4.31-.38c-.409-.031-.648-.142-.536-.247.112-.105.529-.165.94-.135 1.483.113 2.971.244 4.424.389.4.04.606.156.464.259-.109.078-.391.126-.695.127zm-31.492-.612c-.353.001-.664-.062-.735-.155-.08-.107.191-.213.603-.237 1.504-.087 3.038-.159 4.56-.213.41-.014.797.06.847.169.049.108-.251.208-.669.223-1.484.053-2.979.123-4.443.208a3.05 3.05 0 0 1-.163.005zm22.667-.061c-.053 0-.107-.001-.16-.004a203.47 203.47 0 0 0-4.448-.184c-.418-.013-.72-.111-.672-.219.049-.108.432-.184.843-.173 1.519.046 3.054.109 4.562.188.415.022.687.126.608.233-.067.094-.38.158-.733.159zm-13.614-.261c-.407.001-.744-.081-.76-.188-.016-.109.313-.201.732-.207a208.17 208.17 0 0 1 4.61-.012c.421.003.749.094.735.203-.017.109-.404.193-.79.191a210.167 210.167 0 0 0-4.493.012l-.034.001z"/><path fill="#FFBC47" d="m920.431 716.296.275 52.944c-2.696 3.839-9.457 7.263-18.938 9.888-11.758 3.262-27.706 5.282-45.252 5.324-22.13.053-41.754-3.057-53.651-7.862-5.14-2.067-8.851-4.453-10.695-7.04l-.275-52.944 128.536-.31z"/><path fill="#F0AA30" d="m920.499 729.793.021 4.145c-10.146 7.62-34.735 12.913-64.201 12.984-29.466.071-54.109-5.105-64.335-12.675l-.021-4.145c6.12 8.564 32.661 14.98 64.346 14.904 31.686-.076 58.16-6.62 64.19-15.213z"/><path fill="#F0AA30" d="m920.567 742.942.022 4.145c-10.146 7.62-34.735 12.914-64.202 12.984-29.466.071-54.109-5.104-64.335-12.675l-.022-4.145c6.12 8.564 32.661 14.98 64.346 14.904 31.687-.076 58.161-6.62 64.191-15.213z"/><path fill="#F0AA30" d="m920.636 756.091.022 4.145c-10.146 7.62-34.735 12.913-64.202 12.984-29.466.071-54.109-5.104-64.335-12.675l-.021-4.145c6.12 8.564 32.661 14.98 64.346 14.904 31.685-.076 58.159-6.62 64.19-15.213z"/><path fill="#999" d="m802.553 716.579.312 60.01c-5.14-2.067-8.851-4.453-10.695-7.04l-.275-52.944 10.658-.026z"/><path fill="#E6E7E8" d="m920.431 716.296.275 52.944c-2.696 3.839-9.457 7.263-18.938 9.888l-.326-62.786 18.989-.046z"/><ellipse cx="856.162" cy="716.194" fill="#FFBC47" rx="64.203" ry="18.413" transform="translate(-1.54 1.846)"/><path fill="#FFBC47" d="M856.077 699.854c-27.726.067-52.202 6.215-54.896 14.445-2.992 9.14 21.521 17.262 55.061 17.182 33.539-.081 57.968-8.321 54.881-17.446-2.781-8.217-27.321-14.247-55.046-14.181zm.157 30.304c-30.976.075-53.803-7.399-51.226-15.868 2.337-7.682 25.123-13.457 51.073-13.52 25.95-.063 48.795 5.603 51.212 13.274 2.666 8.457-20.083 16.04-51.059 16.114z"/><path fill="#FFBC47" d="M856.066 697.783c-31.746.076-60.107 7.058-63.717 16.537-4.077 10.707 24.304 20.381 63.909 20.286 39.604-.095 67.885-9.906 63.696-20.593-3.709-9.461-32.142-16.307-63.888-16.23zm.175 33.697c-33.539.081-58.053-8.042-55.061-17.182 2.695-8.23 27.171-14.378 54.896-14.445 27.726-.067 52.265 5.964 55.045 14.18 3.088 9.127-21.341 17.367-54.88 17.447z"/><path fill="#F0AA30" d="M856.077 699.854c-27.726.067-52.202 6.215-54.896 14.445-2.992 9.14 21.521 17.262 55.061 17.182 33.539-.081 57.968-8.321 54.881-17.446-2.781-8.217-27.321-14.247-55.046-14.181zm.157 30.304c-30.976.075-53.803-7.399-51.226-15.868 2.337-7.682 25.123-13.457 51.073-13.52 25.95-.063 48.795 5.603 51.212 13.274 2.666 8.457-20.083 16.04-51.059 16.114z"/><path fill="#FFBC47" d="M907.294 714.044c2.665 8.457-20.084 16.04-51.06 16.114-30.976.075-53.803-7.399-51.226-15.868 2.337-7.682 25.123-13.457 51.073-13.52 25.951-.062 48.796 5.603 51.213 13.274z"/><path fill="#F0AA30" d="M877.641 719.957c-.372-2.846-6.118-4.385-17.044-5.576l-.198-6.178c5.19.042 9.063.504 11.027.792l2.042-1.822c-2.716-.407-7.13-.784-13.128-.797l-.075-2.321-6.456.016-.024 2.487c-8.78.55-14.473 2.309-14.7 4.585-.237 2.372 5.284 3.887 14.609 4.949l-.073 7.602c-5.773-.047-11.154-.622-14.851-1.306l-2.474 2.253c3.569.727 10.673 1.301 17.303 1.306l-.029 3.027 7.493-.018-.103-3.219c11.658-.717 17.026-3.138 16.681-5.78zm-30.193-9.1c.044-.896 1.894-1.911 6.319-2.385l-.048 5.04c-4.36-.691-6.329-1.458-6.271-2.655zm13.438 12.544-.208-6.476c5.578.822 7.951 1.776 8.068 3.261.118 1.504-2.696 2.688-7.86 3.215z"/><path fill="#FFF7BC" d="M876.454 718.741c-.35-2.806-6.045-4.323-16.887-5.498l-.159-6.095c5.155.041 8.999.497 10.949.781l2.04-1.798c-2.696-.401-7.078-.773-13.036-.787l-.06-2.291-6.414.016-.038 2.455c-8.726.543-14.389 2.279-14.627 4.525-.248 2.34 5.227 3.834 14.481 4.881l-.117 7.494c-5.731-.046-11.069-.613-14.735-1.287l-2.468 2.22c3.539.716 10.588 1.282 17.169 1.287l-.047 2.982 7.437-.018-.082-3.171c11.572-.706 16.918-3.092 16.594-5.696zm-29.926-8.974c.048-.884 1.892-1.886 6.29-2.353l-.078 4.972c-4.325-.682-6.276-1.438-6.212-2.619zm13.27 12.369-.166-6.385c5.533.811 7.884 1.751 7.99 3.215.107 1.483-2.694 2.65-7.824 3.17z"/><path fill="#F0AA30" d="M853.605 733.736h-.037c-1.89-.018-3.792-.063-5.647-.132-.513-.019-.87-.167-.799-.329.071-.163.546-.284 1.052-.26 1.798.066 3.64.109 5.472.127.515.005.916.142.897.306-.021.159-.437.286-.938.288zm5.596-.019c-.499.001-.915-.123-.94-.282-.026-.164.371-.303.885-.312a204.95 204.95 0 0 0 5.466-.164c.498-.025.984.091 1.061.253.075.162-.279.313-.789.335-1.86.081-3.759.139-5.641.17h-.042zm-16.652-.39c-.064 0-.13-.002-.195-.006a192.372 192.372 0 0 1-5.438-.431c-.489-.046-.75-.21-.585-.366.165-.156.695-.245 1.179-.199 1.725.162 3.498.302 5.27.417.5.032.813.188.697.348-.102.139-.498.236-.928.237zm27.697-.094c-.431.001-.825-.093-.931-.231-.122-.159.185-.317.684-.353 1.772-.127 3.539-.279 5.253-.452.485-.049 1.014.037 1.184.191.171.155-.087.321-.573.37-1.766.179-3.591.337-5.419.469a3.322 3.322 0 0 1-.198.006zM832 732.334c-.114 0-.23-.006-.34-.02a151.662 151.662 0 0 1-5.026-.713c-.444-.071-.601-.245-.35-.389.252-.145.818-.202 1.261-.132 1.574.25 3.212.481 4.869.688.469.059.68.228.473.378-.159.116-.519.187-.887.188zm48.75-.165c-.367.001-.724-.067-.887-.181-.212-.149-.005-.32.461-.381 1.639-.216 3.266-.459 4.839-.72.437-.072 1.007-.018 1.262.124.257.142.105.317-.338.391-1.622.271-3.301.521-4.992.745a3.014 3.014 0 0 1-.345.022zm-58.387-1.367c-.166 0-.329-.013-.473-.041-1.52-.298-3.011-.621-4.43-.958-.388-.092-.438-.271-.113-.398.33-.127.907-.155 1.291-.064 1.38.327 2.825.638 4.3.927.42.082.523.258.235.395-.189.089-.5.139-.81.139zm67.958-.227c-.308.001-.617-.047-.809-.134-.293-.134-.193-.311.221-.396 1.472-.299 2.905-.621 4.264-.954.383-.094.96-.071 1.293.055.33.125.286.303-.099.398-1.4.345-2.878.677-4.392.987-.145.029-.31.043-.478.044zm-76.353-1.769a2.23 2.23 0 0 1-.584-.068 73.905 73.905 0 0 1-3.696-1.16c-.32-.109-.264-.286.122-.393.388-.106.959-.105 1.275.004 1.133.388 2.342.765 3.594 1.122.355.101.355.279-.005.397a2.413 2.413 0 0 1-.706.098zm84.675-.282a2.41 2.41 0 0 1-.704-.093c-.362-.116-.368-.293-.016-.397a71.364 71.364 0 0 0 3.553-1.146c.317-.111.886-.116 1.274-.012.39.104.451.28.136.392-1.15.408-2.38.807-3.657 1.184a2.22 2.22 0 0 1-.586.072zm-91.577-2.09c-.26.001-.51-.033-.669-.099a41.759 41.759 0 0 1-2.865-1.314c-.24-.122-.086-.291.343-.376.433-.084.975-.055 1.218.068.857.433 1.797.861 2.791 1.272.282.116.178.289-.233.386a2.616 2.616 0 0 1-.585.063zm98.395-.327c-.198 0-.402-.019-.58-.059-.413-.094-.522-.266-.245-.384.978-.416 1.903-.85 2.749-1.291.239-.124.786-.157 1.214-.076.434.082.593.249.356.373-.869.455-1.818.903-2.822 1.333-.158.067-.41.103-.672.104zm-103.625-2.325c-.308.001-.594-.047-.73-.133a19.998 19.998 0 0 1-1.972-1.418c-.158-.131.086-.286.545-.347.453-.061.961-.005 1.121.126.569.465 1.216.927 1.926 1.374.202.127.003.29-.445.363a2.852 2.852 0 0 1-.445.035zm108.769-.361c-.147 0-.297-.01-.441-.032-.45-.07-.654-.232-.456-.36a18.873 18.873 0 0 0 1.882-1.388c.159-.132.661-.19 1.115-.133.461.058.71.212.556.344-.567.483-1.214.964-1.927 1.431-.133.088-.42.137-.729.138zm-112.217-2.472c-.357.001-.67-.064-.763-.169a8.392 8.392 0 0 1-1.051-1.473c-.075-.135.249-.273.72-.31.478-.036.915.043.991.177.266.474.614.954 1.034 1.428.118.133-.165.281-.633.33a2.505 2.505 0 0 1-.298.017zm115.574-.385c-.095 0-.195-.004-.294-.014-.468-.046-.757-.192-.643-.326.4-.471.732-.953.987-1.434.073-.134.518-.217.984-.184.473.034.8.17.73.305a8.127 8.127 0 0 1-1.003 1.478c-.088.107-.402.174-.761.175zm-117.212-2.533c-.408.001-.74-.083-.769-.204a4.995 4.995 0 0 1-.145-1.478c.006-.134.394-.253.864-.266.445-.017.845.085.839.219-.02.475.032.957.154 1.435.036.135-.319.265-.794.29-.05.002-.099.004-.149.004zm118.756-.394a3.41 3.41 0 0 1-.143-.003c-.474-.021-.834-.148-.804-.284.105-.48.141-.963.109-1.436-.009-.134.376-.229.833-.225.47.01.859.126.87.26.041.486.008.983-.096 1.477-.028.123-.36.21-.769.211zm-118.628-2.515c-.465.001-.803-.106-.756-.238l.022-.066c.174-.486.416-.97.725-1.443.084-.13.547-.229.975-.217.453.01.754.123.671.252-.295.46-.527.931-.689 1.399l-.023.07c-.046.134-.46.242-.925.243zm118.406-.39c-.463.001-.878-.105-.927-.237a6.676 6.676 0 0 0-.714-1.395c-.085-.129.212-.244.666-.256.428-.016.89.082.978.212.316.47.568.952.75 1.434.05.132-.286.241-.751.242h-.002zM798.72 712.24a3.27 3.27 0 0 1-.14-.003c-.443-.02-.703-.14-.582-.266.44-.458.949-.917 1.517-1.362.155-.121.622-.198 1.053-.166.427.031.649.154.495.276-.548.434-1.042.88-1.463 1.326-.108.113-.485.194-.88.195zm114.694-.31c-.394.001-.772-.078-.882-.19a14.049 14.049 0 0 0-1.483-1.318c-.157-.121.062-.246.488-.279.428-.033.898.039 1.054.16a14.78 14.78 0 0 1 1.541 1.354c.123.126-.135.246-.578.269a2.16 2.16 0 0 1-.14.004zm-111.343-2.336c-.091 0-.18-.004-.268-.012-.409-.04-.588-.168-.399-.285a30.256 30.256 0 0 1 2.24-1.254c.22-.112.711-.161 1.102-.113.388.049.528.179.31.291-.779.398-1.509.809-2.169 1.222-.148.091-.481.15-.816.151zm107.945-.291c-.335.001-.668-.056-.818-.147a28.899 28.899 0 0 0-2.185-1.208c-.22-.111-.084-.242.304-.293.391-.051.882-.003 1.103.107.808.403 1.569.82 2.259 1.241.19.116.014.245-.396.287a3.316 3.316 0 0 1-.267.013zm-103.203-2.128c-.133 0-.265-.008-.383-.027-.368-.058-.464-.191-.216-.296.895-.379 1.86-.756 2.87-1.118.275-.099.78-.125 1.118-.06.345.065.404.198.128.297-.979.354-1.915.721-2.784 1.091-.168.071-.453.112-.733.113zm98.429-.263c-.28.001-.565-.039-.733-.109a53.417 53.417 0 0 0-2.801-1.075c-.276-.097-.222-.231.121-.298.34-.066.843-.043 1.12.054 1.012.355 1.984.726 2.887 1.103.251.104.156.237-.21.297a2.477 2.477 0 0 1-.384.028zm-92.489-1.878c-.175 0-.346-.015-.484-.046-.319-.073-.334-.206-.035-.298a88.653 88.653 0 0 1 3.4-.963c.323-.083.819-.088 1.11-.009.293.079.271.211-.049.296a83.757 83.757 0 0 0-3.306.939 2.28 2.28 0 0 1-.636.081zm86.516-.229a2.337 2.337 0 0 1-.636-.077 84.303 84.303 0 0 0-3.318-.921c-.322-.083-.347-.215-.055-.295.292-.08.789-.079 1.11.003 1.173.3 2.321.617 3.415.944.3.09.286.223-.03.298-.138.031-.31.047-.486.048zm-79.575-1.594a1.978 1.978 0 0 1-.57-.069c-.265-.085-.203-.216.137-.292a121.61 121.61 0 0 1 3.834-.791c.359-.068.841-.05 1.076.04.238.09.139.219-.219.287-1.275.243-2.529.503-3.729.773a2.666 2.666 0 0 1-.529.052zm72.605-.193a2.58 2.58 0 0 1-.528-.05 114.999 114.999 0 0 0-3.742-.752c-.36-.066-.46-.194-.225-.286.235-.091.718-.112 1.075-.046 1.312.242 2.607.501 3.847.771.341.074.405.205.143.291a1.968 1.968 0 0 1-.57.072zm-64.853-1.285c-.258.001-.506-.033-.641-.095-.206-.095-.071-.22.304-.28a158.51 158.51 0 0 1 4.17-.607c.385-.051.843-.013 1.02.086.177.099.007.221-.381.272-1.375.182-2.741.382-4.06.593-.13.021-.273.031-.412.031zm57.076-.152c-.139 0-.282-.009-.411-.029a149.79 149.79 0 0 0-4.073-.571c-.389-.049-.56-.17-.385-.27.175-.1.631-.14 1.017-.092 1.414.178 2.821.375 4.183.585.375.058.513.182.308.278-.133.064-.38.099-.639.099zm-48.701-.955c-.304.001-.585-.046-.696-.124-.146-.102.06-.219.458-.261 1.451-.154 2.936-.293 4.417-.413.412-.034.829.025.943.129.113.105-.125.217-.532.25a174.92 174.92 0 0 0-4.301.403 2.532 2.532 0 0 1-.289.016zm40.302-.108a2.73 2.73 0 0 1-.287-.014 176.62 176.62 0 0 0-4.31-.38c-.409-.031-.648-.142-.536-.247.112-.105.529-.166.94-.135 1.483.113 2.971.244 4.424.389.4.04.606.156.464.259-.109.079-.391.127-.695.128zm-31.492-.612c-.353.001-.664-.062-.735-.155-.08-.107.191-.213.603-.237 1.504-.087 3.039-.159 4.56-.213.41-.015.797.06.847.169.049.108-.25.208-.669.223-1.484.053-2.979.122-4.443.207-.056.005-.11.006-.163.006zm22.668-.06a2.8 2.8 0 0 1-.16-.004 203.377 203.377 0 0 0-4.447-.184c-.418-.013-.72-.111-.672-.219.049-.108.432-.184.844-.173 1.519.046 3.054.109 4.562.188.415.022.687.126.609.233-.071.093-.384.158-.736.159zm-13.615-.261c-.407.001-.744-.081-.76-.187-.016-.109.312-.201.732-.207a208.17 208.17 0 0 1 4.61-.012c.421.003.749.094.735.203-.017.109-.404.193-.79.191a203.819 203.819 0 0 0-4.493.012h-.034z"/><path fill="#FFF7BC" d="M853.66 733.342h-.037c-1.89-.018-3.792-.063-5.647-.132-.513-.019-.87-.167-.799-.329.071-.163.546-.284 1.052-.26 1.799.066 3.64.109 5.472.127.514.005.915.142.896.306-.02.16-.436.287-.937.288zm5.595-.019c-.499.001-.915-.123-.94-.282-.026-.164.371-.303.885-.312a204.95 204.95 0 0 0 5.466-.164c.498-.025.984.091 1.061.253.075.162-.278.312-.789.335-1.86.081-3.759.139-5.641.17h-.042zm-16.651-.389c-.064 0-.13-.002-.195-.006a192.372 192.372 0 0 1-5.438-.431c-.489-.046-.75-.21-.585-.366.165-.156.695-.245 1.179-.199 1.725.162 3.498.302 5.271.416.5.032.812.188.696.348-.103.14-.498.237-.928.238zm27.696-.094c-.431.001-.825-.093-.93-.231-.122-.159.185-.317.684-.353 1.773-.127 3.539-.279 5.253-.452.485-.049 1.014.037 1.184.191.171.155-.087.321-.573.37-1.766.179-3.591.337-5.42.469a3.272 3.272 0 0 1-.198.006zm-38.245-.9c-.114 0-.23-.006-.34-.02a151.662 151.662 0 0 1-5.026-.713c-.444-.071-.601-.245-.35-.389.252-.145.818-.202 1.261-.132 1.574.25 3.212.481 4.869.688.469.059.68.228.473.378-.16.117-.519.188-.887.188zm48.75-.165c-.367.001-.724-.067-.887-.181-.212-.149-.005-.32.461-.381 1.639-.216 3.266-.459 4.839-.72.437-.072 1.007-.018 1.262.124.257.142.105.317-.338.391-1.622.271-3.301.521-4.992.745a2.62 2.62 0 0 1-.345.022zm-58.387-1.366c-.166 0-.329-.013-.473-.041-1.52-.298-3.011-.621-4.43-.958-.388-.092-.438-.27-.113-.397.33-.127.907-.155 1.291-.064 1.38.327 2.826.639 4.3.927.42.082.523.258.235.395-.189.087-.5.137-.81.138zm67.959-.228c-.308.001-.617-.047-.809-.134-.293-.134-.194-.311.221-.396 1.472-.299 2.905-.621 4.264-.954.383-.094.959-.071 1.292.055.33.125.286.303-.099.398-1.4.345-2.878.677-4.393.987a2.468 2.468 0 0 1-.476.044zm-76.355-1.768a2.23 2.23 0 0 1-.584-.068 74.234 74.234 0 0 1-3.696-1.16c-.32-.109-.264-.286.122-.393.388-.106.959-.105 1.275.004 1.133.388 2.342.765 3.594 1.122.355.101.355.279-.005.397a2.403 2.403 0 0 1-.706.098zm84.676-.283a2.416 2.416 0 0 1-.704-.093c-.362-.116-.369-.293-.017-.397a71.364 71.364 0 0 0 3.553-1.146c.317-.111.886-.116 1.274-.012.39.104.451.28.136.392-1.151.408-2.38.807-3.657 1.184-.16.048-.369.071-.585.072zm-91.577-2.089c-.26.001-.51-.033-.669-.099a41.98 41.98 0 0 1-2.865-1.314c-.24-.122-.086-.291.344-.376.433-.084.975-.055 1.218.068.857.433 1.797.861 2.791 1.272.282.117.178.289-.233.386-.18.042-.385.062-.586.063zm98.395-.328c-.198 0-.402-.019-.58-.059-.413-.094-.522-.266-.245-.384.978-.416 1.903-.85 2.748-1.291.24-.124.786-.157 1.214-.076.434.082.593.249.356.373-.869.455-1.818.903-2.822 1.333-.157.068-.409.104-.671.104zm-103.625-2.324c-.308.001-.594-.047-.73-.133a20.117 20.117 0 0 1-1.972-1.418c-.158-.131.086-.286.546-.347.454-.061.961-.005 1.121.126.569.465 1.216.928 1.926 1.374.202.127.003.29-.445.363a3.003 3.003 0 0 1-.446.035zm108.768-.361c-.147 0-.297-.01-.441-.032-.449-.07-.654-.232-.456-.36a18.873 18.873 0 0 0 1.882-1.388c.159-.132.661-.19 1.115-.133.461.058.71.212.556.344-.567.483-1.214.964-1.927 1.431-.132.087-.419.137-.729.138zm-112.216-2.473c-.357.001-.671-.064-.763-.169a8.445 8.445 0 0 1-1.051-1.473c-.075-.135.249-.273.72-.31.478-.036.915.043.991.177.266.474.614.954 1.035 1.428.118.133-.165.281-.633.33-.1.012-.202.017-.299.017zm115.574-.384c-.095 0-.195-.004-.294-.014-.468-.046-.757-.192-.643-.326.399-.471.732-.953.987-1.434.073-.134.518-.217.984-.184.473.034.799.17.73.305a8.162 8.162 0 0 1-1.003 1.478c-.088.107-.402.174-.761.175zm-117.212-2.534c-.408.001-.74-.083-.769-.204a4.995 4.995 0 0 1-.145-1.478c.006-.134.394-.253.864-.266.445-.017.845.085.84.219-.02.475.031.957.154 1.435.035.135-.32.265-.794.29-.051.003-.1.004-.15.004zm118.756-.394a3.41 3.41 0 0 1-.143-.003c-.474-.021-.834-.148-.805-.284.105-.48.142-.963.109-1.436-.01-.134.376-.229.833-.225.47.01.859.126.87.26.041.486.008.983-.096 1.477-.027.123-.359.211-.768.211zm-118.628-2.514c-.465.001-.803-.106-.756-.238l.022-.066c.174-.486.417-.97.725-1.443.084-.13.547-.229.975-.217.452.01.754.123.671.252-.294.46-.526.931-.689 1.399l-.023.07c-.046.133-.46.242-.925.243zm118.406-.391c-.463.001-.878-.105-.927-.237a6.725 6.725 0 0 0-.714-1.395c-.085-.129.212-.244.666-.256.428-.016.89.082.978.212.316.47.568.952.75 1.434.05.132-.287.241-.751.242h-.002zm-116.564-2.492c-.047 0-.094-.001-.139-.003-.443-.02-.703-.14-.583-.266.44-.458.949-.917 1.517-1.362.155-.121.622-.198 1.053-.166.427.031.649.154.495.276-.548.434-1.042.88-1.463 1.326-.108.113-.485.194-.88.195zm114.694-.31c-.394.001-.773-.078-.882-.19a14.049 14.049 0 0 0-1.483-1.318c-.157-.121.062-.246.488-.279.428-.033.898.039 1.054.16a14.78 14.78 0 0 1 1.541 1.354c.123.126-.135.246-.578.269a2.16 2.16 0 0 1-.14.004zM802.126 709.2c-.091 0-.18-.004-.268-.012-.409-.04-.588-.168-.399-.285a30.256 30.256 0 0 1 2.24-1.254c.22-.112.711-.161 1.102-.113.388.049.528.179.31.291-.779.398-1.509.809-2.169 1.222-.148.092-.481.15-.816.151zm107.944-.291c-.335.001-.667-.056-.818-.147a28.705 28.705 0 0 0-2.185-1.208c-.22-.111-.084-.242.304-.293.391-.051.882-.003 1.103.107.808.403 1.569.82 2.259 1.241.19.116.014.245-.396.287a2.568 2.568 0 0 1-.267.013zm-103.202-2.128c-.133 0-.265-.008-.383-.027-.368-.058-.464-.191-.216-.296.895-.379 1.86-.756 2.87-1.118.275-.099.78-.124 1.117-.06.346.065.404.198.129.297-.979.354-1.916.721-2.784 1.091-.168.072-.453.113-.733.113zm98.429-.262c-.28.001-.565-.039-.733-.109a54.675 54.675 0 0 0-2.801-1.075c-.276-.097-.222-.231.121-.298.34-.066.843-.043 1.12.054a53.9 53.9 0 0 1 2.888 1.103c.251.104.156.237-.21.297a2.63 2.63 0 0 1-.385.028zm-92.489-1.878c-.175 0-.346-.015-.484-.046-.319-.073-.334-.206-.035-.298a88.653 88.653 0 0 1 3.4-.963c.323-.083.82-.088 1.11-.009.293.079.271.211-.049.296a83.757 83.757 0 0 0-3.306.939 2.285 2.285 0 0 1-.636.081zm86.516-.23a2.35 2.35 0 0 1-.637-.077 83.824 83.824 0 0 0-3.318-.921c-.322-.083-.347-.215-.055-.295.292-.08.789-.079 1.11.003 1.173.3 2.321.617 3.415.944.3.09.286.223-.03.298a2.219 2.219 0 0 1-.485.048zm-79.575-1.594a1.978 1.978 0 0 1-.57-.069c-.265-.085-.203-.216.137-.292a121.61 121.61 0 0 1 3.834-.791c.359-.068.841-.05 1.076.04.238.09.139.218-.219.287-1.275.243-2.529.503-3.729.772a2.522 2.522 0 0 1-.529.053zm72.605-.192a2.58 2.58 0 0 1-.528-.05 114.999 114.999 0 0 0-3.742-.752c-.36-.066-.46-.194-.225-.286.235-.091.718-.112 1.075-.046 1.312.242 2.607.501 3.847.771.341.074.405.205.143.291a2.004 2.004 0 0 1-.57.072zm-64.853-1.285c-.258.001-.506-.033-.641-.095-.206-.095-.071-.22.304-.28a158.51 158.51 0 0 1 4.17-.607c.385-.051.843-.013 1.02.086.177.099.007.221-.381.272-1.375.182-2.741.382-4.06.593-.131.02-.273.03-.412.031zm57.076-.152c-.139 0-.282-.009-.411-.029a149.79 149.79 0 0 0-4.073-.571c-.389-.049-.56-.17-.385-.27.174-.1.631-.14 1.017-.092 1.414.178 2.821.375 4.183.585.375.058.513.182.308.278-.133.064-.38.098-.639.099zm-48.701-.956c-.305.001-.585-.046-.696-.124-.145-.102.061-.219.458-.261 1.451-.154 2.936-.293 4.417-.413.412-.034.829.025.943.129.112.105-.125.217-.533.25a174.92 174.92 0 0 0-4.301.403 2.502 2.502 0 0 1-.288.016zm40.302-.107a2.73 2.73 0 0 1-.287-.014 176.62 176.62 0 0 0-4.31-.38c-.409-.031-.648-.142-.537-.247.112-.105.529-.166.94-.135 1.483.113 2.971.244 4.424.389.399.04.606.156.464.259-.108.079-.39.127-.694.128zm-31.492-.612c-.353.001-.665-.062-.735-.155-.08-.107.191-.213.603-.237 1.504-.087 3.038-.159 4.56-.213.41-.015.797.06.847.169.049.108-.251.208-.669.223-1.484.053-2.978.122-4.443.208a3.05 3.05 0 0 1-.163.005zm22.667-.061a2.8 2.8 0 0 1-.16-.004 203.47 203.47 0 0 0-4.448-.184c-.418-.013-.72-.111-.672-.219.049-.108.432-.184.843-.173 1.519.046 3.054.109 4.562.188.415.022.687.126.609.233-.068.094-.381.158-.734.159zm-13.614-.261c-.407.001-.744-.081-.76-.187-.016-.109.313-.201.732-.207a208.17 208.17 0 0 1 4.61-.012c.421.003.749.094.735.203-.017.109-.404.193-.79.191a203.802 203.802 0 0 0-4.493.012h-.034z"/><path fill="#FFBC47" d="M810.879 747.882c-23.296-.853-42.895 17.868-42.895 41.841 0 23.972 19.598 42.693 42.895 41.841 22.384-.819 39.9-19.542 39.9-41.841.001-22.299-17.515-41.022-39.9-41.841zm0 80.767c-21.642.737-39.804-16.683-39.804-38.927s18.161-39.664 39.804-38.927c20.853.71 37.212 18.131 37.212 38.927.001 20.796-16.359 38.217-37.212 38.927z"/><path fill="#FFBC47" d="M810.879 741.16c-27.135-1.153-50.088 20.563-50.088 48.563 0 28 22.953 49.715 50.088 48.563 25.905-1.1 46.053-22.819 46.053-48.563 0-25.744-20.147-47.462-46.053-48.563zm0 90.403c-23.296.853-42.895-17.868-42.895-41.841 0-23.973 19.598-42.693 42.895-41.841 22.384.819 39.9 19.541 39.9 41.841.001 22.3-17.515 41.022-39.9 41.841z"/><path fill="#F0AA30" d="M810.879 747.882c-23.296-.853-42.895 17.868-42.895 41.841 0 23.972 19.598 42.693 42.895 41.841 22.384-.819 39.9-19.542 39.9-41.841.001-22.299-17.515-41.022-39.9-41.841zm0 80.767c-21.642.737-39.804-16.683-39.804-38.927s18.161-39.664 39.804-38.927c20.853.71 37.212 18.131 37.212 38.927.001 20.796-16.359 38.217-37.212 38.927z"/><path fill="#FFBC47" d="M848.092 789.723c0 20.796-16.36 38.217-37.212 38.927-21.642.737-39.804-16.683-39.804-38.927s18.161-39.664 39.804-38.927c20.852.71 37.212 18.131 37.212 38.927z"/><path fill="#F0AA30" d="M826.258 804.586c0-7.113-4.037-11.081-12.05-14.265V773.28c4.009.213 6.951 1.591 8.427 2.437l1.709-5.143c-2.056-1.229-5.45-2.418-10.136-2.59v-6.907l-5.165-.13v7.427c-6.96 1.428-11.38 6.442-11.38 12.914 0 6.554 4.329 10.669 11.38 13.508v19c-4.135-.06-8.048-1.398-10.786-3.037l-1.637 5.473c2.629 1.688 7.734 2.951 12.423 2.88v6.935l5.165-.164v-7.349c8.133-1.801 12.05-7.555 12.05-13.948zm-22.085-23.991c0-2.519 1.414-5.38 4.869-6.66v14.015c-3.331-1.911-4.869-4.033-4.869-7.355zm10.035 32.436v-16.059c4.047 2.108 5.714 4.515 5.714 8.208 0 3.675-2.047 6.548-5.714 7.851z"/><path fill="#FFF7BC" d="M825.525 801.576c0-7.118-4.042-11.099-12.065-14.306v-17.052c4.014.223 6.96 1.611 8.438 2.461l1.711-5.142c-2.058-1.235-5.457-2.434-10.149-2.619v-6.912l-5.172-.144v7.432c-6.969 1.41-11.395 6.415-11.395 12.892 0 6.559 4.334 10.688 11.395 13.547v19.013c-4.141-.071-8.058-1.421-10.8-3.068l-1.639 5.472c2.632 1.696 7.744 2.973 12.439 2.915v6.94l5.172-.15v-7.354c8.144-1.78 12.065-7.527 12.065-13.925zm-22.113-24.066c0-2.521 1.416-5.38 4.875-6.651v14.024c-3.336-1.921-4.875-4.048-4.875-7.373zm10.048 32.486v-16.07c4.053 2.12 5.722 4.533 5.722 8.229 0 3.677-2.05 6.546-5.722 7.841z"/><path fill="#F0AA30" d="M809.635 836.043h-.025a44.763 44.763 0 0 1-3.831-.158.61.61 0 0 1-.554-.694c.044-.355.365-.628.711-.586 1.228.105 2.48.158 3.723.158a.608.608 0 0 1 .608.639.669.669 0 0 1-.632.641zm3.767-.165a.603.603 0 0 1-.628-.584.665.665 0 0 1 .599-.69 43.773 43.773 0 0 0 3.673-.468.6.6 0 0 1 .7.52.664.664 0 0 1-.539.733 45.019 45.019 0 0 1-3.805.489zm-11.303-.472a.608.608 0 0 1-.134-.009 44.22 44.22 0 0 1-3.774-.821.62.62 0 0 1-.431-.789.67.67 0 0 1 .804-.462c1.206.319 2.439.589 3.666.801.345.06.567.393.494.743a.674.674 0 0 1-.625.537zm18.69-.8a.594.594 0 0 1-.606-.475.662.662 0 0 1 .474-.773 43.125 43.125 0 0 0 3.52-1.08.593.593 0 0 1 .771.387.658.658 0 0 1-.407.805c-1.181.42-2.4.795-3.62 1.116a.548.548 0 0 1-.132.02zm-26.061-1.145a.644.644 0 0 1-.24-.037 43.916 43.916 0 0 1-3.603-1.477.633.633 0 0 1-.291-.862.674.674 0 0 1 .878-.321 42.906 42.906 0 0 0 3.496 1.438c.333.12.496.49.364.828a.683.683 0 0 1-.604.431zm33.088-1.352a.587.587 0 0 1-.569-.372.656.656 0 0 1 .339-.832 42.79 42.79 0 0 0 3.27-1.652.589.589 0 0 1 .818.246.653.653 0 0 1-.266.853 44.159 44.159 0 0 1-3.363 1.702.595.595 0 0 1-.229.055zm-40.058-1.869a.644.644 0 0 1-.343-.084 44.81 44.81 0 0 1-3.315-2.095.64.64 0 0 1-.142-.909.676.676 0 0 1 .924-.169 44.659 44.659 0 0 0 3.219 2.038c.31.177.406.575.218.889a.687.687 0 0 1-.561.33zm46.533-1.756a.577.577 0 0 1-.515-.278.65.65 0 0 1 .195-.869 44.334 44.334 0 0 0 2.94-2.167.583.583 0 0 1 .844.101.646.646 0 0 1-.123.877 45.864 45.864 0 0 1-3.021 2.231.612.612 0 0 1-.32.105zm-52.885-2.657a.654.654 0 0 1-.438-.148 46.123 46.123 0 0 1-2.923-2.655.65.65 0 0 1 .016-.93.676.676 0 0 1 .944-.009c.906.898 1.86 1.766 2.837 2.581.276.23.305.643.062.922a.681.681 0 0 1-.498.239zm58.65-1.98a.573.573 0 0 1-.449-.196.641.641 0 0 1 .052-.881 44.367 44.367 0 0 0 2.536-2.613.584.584 0 0 1 .844-.044c.239.23.248.623.021.877a45.623 45.623 0 0 1-2.607 2.689.598.598 0 0 1-.397.168zm-64.181-3.501a.657.657 0 0 1-.52-.229 45.948 45.948 0 0 1-2.436-3.14.66.66 0 0 1 .176-.921.678.678 0 0 1 .936.152 44.343 44.343 0 0 0 2.363 3.051.654.654 0 0 1-.097.929.687.687 0 0 1-.422.158zm69.095-2.001a.57.57 0 0 1-.373-.127.635.635 0 0 1-.091-.87 44.184 44.184 0 0 0 2.073-2.985.585.585 0 0 1 .822-.186.63.63 0 0 1 .161.855 45.807 45.807 0 0 1-2.13 3.07.6.6 0 0 1-.462.243zm-73.622-4.394a.662.662 0 0 1-.589-.324 45.836 45.836 0 0 1-1.863-3.534.665.665 0 0 1 .336-.883.676.676 0 0 1 .898.312 43.735 43.735 0 0 0 1.807 3.432.661.661 0 0 1-.256.905.708.708 0 0 1-.333.092zm77.571-1.82a.56.56 0 0 1-.287-.072.624.624 0 0 1-.228-.836 45.725 45.725 0 0 0 1.559-3.278.59.59 0 0 1 .778-.322c.296.135.428.498.295.811a45.739 45.739 0 0 1-1.602 3.369.597.597 0 0 1-.515.328zm-80.93-5.3a.668.668 0 0 1-.64-.431 44.6 44.6 0 0 1-1.221-3.823.669.669 0 0 1 .486-.815.673.673 0 0 1 .831.464 43.838 43.838 0 0 0 1.184 3.71.668.668 0 0 1-.41.853.695.695 0 0 1-.23.042zm83.812-1.465a.554.554 0 0 1-.195-.032c-.305-.108-.467-.458-.359-.781a44.482 44.482 0 0 0 1.002-3.481c.081-.329.404-.532.713-.45.314.082.502.415.422.745a45.13 45.13 0 0 1-1.03 3.579.599.599 0 0 1-.553.42zm-85.885-6.163a.67.67 0 0 1-.671-.545 45.33 45.33 0 0 1-.536-3.986.672.672 0 0 1 .621-.722.678.678 0 0 1 .738.601c.116 1.287.29 2.589.519 3.869a.67.67 0 0 1-.554.772.772.772 0 0 1-.117.011zm87.628-.967a.53.53 0 0 1-.097-.008c-.319-.053-.534-.369-.481-.704.189-1.195.332-2.405.425-3.596a.611.611 0 0 1 .631-.565c.322.027.56.323.534.661a47.126 47.126 0 0 1-.436 3.693.602.602 0 0 1-.576.519zm-88.343-6.923a.673.673 0 0 1-.683-.664l-.002-.182c0-1.351.058-2.704.172-4.033a.683.683 0 0 1 .738-.605.672.672 0 0 1 .622.719 45.78 45.78 0 0 0-.167 3.905l.001.195a.67.67 0 0 1-.681.665zm88.912-.39c-.322 0-.584-.274-.585-.613a45.253 45.253 0 0 0-.151-3.618c-.028-.338.21-.636.532-.664.305-.039.604.222.632.562.1 1.224.153 2.475.155 3.717.001.34-.26.616-.583.616zm-88.229-7.698a.672.672 0 0 1-.675-.78c.231-1.315.521-2.636.865-3.925a.671.671 0 0 1 .83-.468.669.669 0 0 1 .489.813 44.254 44.254 0 0 0-.839 3.811.672.672 0 0 1-.67.549zm87.627.389a.6.6 0 0 1-.576-.514 44.212 44.212 0 0 0-.728-3.546.612.612 0 0 1 .419-.748c.315-.084.633.119.714.447.298 1.2.549 2.426.749 3.645.055.336-.159.652-.478.708a.685.685 0 0 1-.1.008zm-85.59-8.032a.724.724 0 0 1-.227-.04.668.668 0 0 1-.414-.852 46.82 46.82 0 0 1 1.534-3.704.677.677 0 0 1 .898-.317c.34.156.492.55.339.88a44.53 44.53 0 0 0-1.489 3.598.67.67 0 0 1-.641.435zm83.82.912a.6.6 0 0 1-.554-.417 43.895 43.895 0 0 0-1.295-3.381.623.623 0 0 1 .292-.813.586.586 0 0 1 .779.318 46.125 46.125 0 0 1 1.331 3.476c.108.322-.051.672-.357.782a.499.499 0 0 1-.196.035zm-80.485-8.061a.694.694 0 0 1-.33-.09.661.661 0 0 1-.26-.905 46.735 46.735 0 0 1 2.146-3.363.68.68 0 0 1 .934-.158c.309.211.39.622.181.92a45.515 45.515 0 0 0-2.081 3.268.667.667 0 0 1-.59.328zm77.582 1.323a.597.597 0 0 1-.514-.325 44.462 44.462 0 0 0-1.833-3.13.63.63 0 0 1 .156-.857.583.583 0 0 1 .822.182 44.818 44.818 0 0 1 1.882 3.22.626.626 0 0 1-.224.837.57.57 0 0 1-.289.073zm-73.079-7.751a.694.694 0 0 1-.422-.156.654.654 0 0 1-.1-.929 46.058 46.058 0 0 1 2.679-2.923.677.677 0 0 1 .944.006.651.651 0 0 1 .021.929 44.548 44.548 0 0 0-2.602 2.84.655.655 0 0 1-.52.233zm69.108 1.562a.598.598 0 0 1-.462-.241 44.843 44.843 0 0 0-2.321-2.796.638.638 0 0 1 .016-.878.583.583 0 0 1 .844.04c.829.92 1.631 1.888 2.386 2.876a.636.636 0 0 1-.087.87.579.579 0 0 1-.376.129zm-63.599-7.081a.687.687 0 0 1-.499-.236.646.646 0 0 1 .059-.924 45.637 45.637 0 0 1 3.122-2.399.674.674 0 0 1 .924.164.642.642 0 0 1-.136.91 44.723 44.723 0 0 0-3.03 2.334.647.647 0 0 1-.44.151zm58.663 1.609a.602.602 0 0 1-.396-.166 43.787 43.787 0 0 0-2.757-2.385.645.645 0 0 1-.127-.877.584.584 0 0 1 .843-.105 46.004 46.004 0 0 1 2.833 2.455.643.643 0 0 1 .055.88.575.575 0 0 1-.451.198zm-52.331-6.061a.686.686 0 0 1-.56-.328.638.638 0 0 1 .214-.89 44.929 44.929 0 0 1 3.462-1.809.673.673 0 0 1 .878.316.632.632 0 0 1-.288.863 44.334 44.334 0 0 0-3.361 1.762.646.646 0 0 1-.345.086zm46.546 1.46a.605.605 0 0 1-.317-.103 43.667 43.667 0 0 0-3.125-1.902.652.652 0 0 1-.27-.853.585.585 0 0 1 .818-.25 44.765 44.765 0 0 1 3.212 1.96c.285.19.374.579.199.867a.584.584 0 0 1-.517.281zm-39.593-4.724a.68.68 0 0 1-.603-.427.628.628 0 0 1 .359-.831 44.663 44.663 0 0 1 3.698-1.172.67.67 0 0 1 .807.458.624.624 0 0 1-.428.791c-1.205.326-2.412.71-3.591 1.142a.612.612 0 0 1-.242.039zm33.096 1.134a.62.62 0 0 1-.228-.053 42.943 42.943 0 0 0-3.417-1.355.658.658 0 0 1-.411-.804.592.592 0 0 1 .77-.392 44.88 44.88 0 0 1 3.513 1.398.655.655 0 0 1 .341.831.584.584 0 0 1-.568.375zm-25.738-3.128a.673.673 0 0 1-.627-.532.618.618 0 0 1 .493-.746 44.604 44.604 0 0 1 3.815-.509.673.673 0 0 1 .713.583.614.614 0 0 1-.551.697 43.967 43.967 0 0 0-3.706.499.71.71 0 0 1-.137.008zm18.699.677a.581.581 0 0 1-.13-.018 43.514 43.514 0 0 0-3.614-.758.663.663 0 0 1-.542-.731.605.605 0 0 1 .698-.524c1.242.207 2.492.471 3.715.783.336.086.55.43.479.77a.595.595 0 0 1-.606.478zm-11.16-1.363a.668.668 0 0 1-.633-.638.607.607 0 0 1 .606-.642 44.398 44.398 0 0 1 3.82.146.666.666 0 0 1 .603.687.626.626 0 0 1-.654.586 43.885 43.885 0 0 0-3.714-.138l-.028-.001z"/><path fill="#FFF7BC" d="M809.131 835.651h-.025a44.428 44.428 0 0 1-3.834-.16.611.611 0 0 1-.554-.694c.044-.355.365-.628.711-.586 1.229.106 2.482.159 3.726.159.349 0 .621.286.608.64a.669.669 0 0 1-.632.641zm3.77-.163a.603.603 0 0 1-.628-.584.666.666 0 0 1 .6-.69 43.843 43.843 0 0 0 3.676-.468.601.601 0 0 1 .701.521.664.664 0 0 1-.539.733 45.11 45.11 0 0 1-3.781.486l-.029.002zm-11.313-.477a.608.608 0 0 1-.134-.009 44.684 44.684 0 0 1-3.777-.823.622.622 0 0 1-.432-.789.671.671 0 0 1 .805-.462c1.207.32 2.441.59 3.669.803.346.06.567.393.495.744a.675.675 0 0 1-.626.536zm18.706-.793a.595.595 0 0 1-.607-.475.661.661 0 0 1 .474-.773 43.186 43.186 0 0 0 3.523-1.079c.326-.115.67.06.771.387a.66.66 0 0 1-.407.806c-1.182.42-2.402.795-3.623 1.115a.647.647 0 0 1-.131.019zm-26.084-1.155a.624.624 0 0 1-.24-.037 43.996 43.996 0 0 1-3.606-1.479.634.634 0 0 1-.292-.863.675.675 0 0 1 .879-.321 42.987 42.987 0 0 0 3.499 1.44c.334.12.496.491.364.828a.679.679 0 0 1-.604.432zm33.117-1.341a.587.587 0 0 1-.569-.373.657.657 0 0 1 .339-.833 43.207 43.207 0 0 0 3.273-1.651.589.589 0 0 1 .819.247.652.652 0 0 1-.267.853 44.59 44.59 0 0 1-3.366 1.702.574.574 0 0 1-.229.055zm-40.093-1.883a.642.642 0 0 1-.343-.084 45.226 45.226 0 0 1-3.318-2.097.642.642 0 0 1-.142-.91.677.677 0 0 1 .925-.169 44.518 44.518 0 0 0 3.221 2.041.636.636 0 0 1 .218.889.69.69 0 0 1-.561.33zm46.573-1.741a.578.578 0 0 1-.515-.278.65.65 0 0 1 .196-.869 44.395 44.395 0 0 0 2.943-2.167.583.583 0 0 1 .844.101.646.646 0 0 1-.124.878c-.97.779-1.987 1.53-3.024 2.231a.626.626 0 0 1-.32.104zm-52.931-2.676a.648.648 0 0 1-.438-.149 45.618 45.618 0 0 1-2.925-2.657.65.65 0 0 1 .016-.93.678.678 0 0 1 .945-.009 44.715 44.715 0 0 0 2.84 2.583.645.645 0 0 1 .062.923.693.693 0 0 1-.5.239zm58.702-1.961a.571.571 0 0 1-.449-.196.642.642 0 0 1 .052-.882 44.39 44.39 0 0 0 2.538-2.613.583.583 0 0 1 .845-.043c.239.23.248.623.021.878a45.657 45.657 0 0 1-2.609 2.689.616.616 0 0 1-.398.167zm-64.238-3.525a.66.66 0 0 1-.521-.229 46.26 46.26 0 0 1-2.438-3.142.66.66 0 0 1 .176-.922.679.679 0 0 1 .937.153 44.723 44.723 0 0 0 2.365 3.053.654.654 0 0 1-.097.929.687.687 0 0 1-.422.158zm69.156-1.978a.569.569 0 0 1-.373-.127.635.635 0 0 1-.091-.87 44.578 44.578 0 0 0 2.075-2.985.585.585 0 0 1 .823-.186.63.63 0 0 1 .161.855 46.206 46.206 0 0 1-2.132 3.07.602.602 0 0 1-.463.243zm-73.687-4.422a.665.665 0 0 1-.59-.324 46.082 46.082 0 0 1-1.865-3.536.666.666 0 0 1 .336-.884.678.678 0 0 1 .899.312 44.126 44.126 0 0 0 1.808 3.434.661.661 0 0 1-.256.906.69.69 0 0 1-.332.092zm77.639-1.793a.56.56 0 0 1-.287-.072.625.625 0 0 1-.229-.836 45.133 45.133 0 0 0 1.56-3.279.591.591 0 0 1 .779-.322.622.622 0 0 1 .296.811 45.986 45.986 0 0 1-1.603 3.37.598.598 0 0 1-.516.328zm-81.002-5.331a.67.67 0 0 1-.641-.431 44.557 44.557 0 0 1-1.222-3.826.669.669 0 0 1 .486-.815.674.674 0 0 1 .832.465c.335 1.24.734 2.489 1.185 3.712a.668.668 0 0 1-.41.853.686.686 0 0 1-.23.042zm83.886-1.436a.554.554 0 0 1-.195-.032.617.617 0 0 1-.359-.781 44.511 44.511 0 0 0 1.003-3.482c.081-.329.405-.532.714-.45.314.082.502.415.422.746a45.282 45.282 0 0 1-1.031 3.58.598.598 0 0 1-.554.419zm-85.96-6.197a.67.67 0 0 1-.671-.545 45.378 45.378 0 0 1-.537-3.988.672.672 0 0 1 .622-.722.68.68 0 0 1 .739.602 45.05 45.05 0 0 0 .52 3.871.671.671 0 0 1-.673.782zm87.705-.936a.53.53 0 0 1-.097-.008c-.319-.054-.535-.369-.482-.705.189-1.196.332-2.406.426-3.597a.611.611 0 0 1 .631-.565c.322.027.561.323.535.662a47.176 47.176 0 0 1-.436 3.695.601.601 0 0 1-.577.518zm-88.421-6.957a.674.674 0 0 1-.684-.665l-.001-.182c0-1.352.057-2.705.172-4.035a.683.683 0 0 1 .739-.605.672.672 0 0 1 .623.719 45.81 45.81 0 0 0-.167 3.907l.001.195a.674.674 0 0 1-.683.666zm88.991-.358c-.323 0-.584-.274-.585-.614a45.751 45.751 0 0 0-.151-3.619c-.027-.339.21-.636.533-.664.305-.039.604.223.633.562.1 1.225.153 2.476.155 3.718.001.34-.261.616-.584.616h-.001zm-88.308-7.734a.672.672 0 0 1-.675-.781c.231-1.315.522-2.636.866-3.926a.67.67 0 0 1 .831-.468.67.67 0 0 1 .49.814 44.66 44.66 0 0 0-.84 3.812.672.672 0 0 1-.672.549zm87.705.421a.601.601 0 0 1-.577-.515 44.616 44.616 0 0 0-.729-3.548.613.613 0 0 1 .419-.748c.315-.083.633.12.715.447.298 1.201.55 2.427.75 3.647.055.336-.159.652-.478.708a.423.423 0 0 1-.1.009zm-85.665-8.067a.693.693 0 0 1-.227-.041.668.668 0 0 1-.415-.852 46.333 46.333 0 0 1 1.536-3.705.678.678 0 0 1 .899-.317c.34.156.493.551.339.881a45.078 45.078 0 0 0-1.49 3.599.67.67 0 0 1-.642.435zm83.894.944a.603.603 0 0 1-.555-.417 43.949 43.949 0 0 0-1.296-3.383.622.622 0 0 1 .292-.813.587.587 0 0 1 .78.319 46.18 46.18 0 0 1 1.332 3.478c.108.322-.052.673-.358.783a.548.548 0 0 1-.195.033zm-80.556-8.095a.697.697 0 0 1-.331-.09.662.662 0 0 1-.26-.906 46.763 46.763 0 0 1 2.148-3.363.679.679 0 0 1 .935-.157.657.657 0 0 1 .182.92 45.69 45.69 0 0 0-2.083 3.269.67.67 0 0 1-.591.327zm77.651 1.352a.598.598 0 0 1-.515-.325 44.91 44.91 0 0 0-1.834-3.132.63.63 0 0 1 .156-.857.586.586 0 0 1 .823.182 45.261 45.261 0 0 1 1.884 3.222.626.626 0 0 1-.225.837.56.56 0 0 1-.289.073zm-73.144-7.781a.697.697 0 0 1-.423-.156.654.654 0 0 1-.1-.929 46.122 46.122 0 0 1 2.682-2.924.677.677 0 0 1 .945.007.652.652 0 0 1 .021.93c-.905.904-1.78 1.86-2.604 2.84a.657.657 0 0 1-.521.232zm69.169 1.588a.6.6 0 0 1-.463-.241 44.278 44.278 0 0 0-2.323-2.798.639.639 0 0 1 .016-.879.584.584 0 0 1 .845.04c.83.921 1.632 1.889 2.387 2.878a.635.635 0 0 1-.087.87.565.565 0 0 1-.375.13zm-63.655-7.107a.683.683 0 0 1-.499-.237.647.647 0 0 1 .058-.924c1-.839 2.051-1.646 3.125-2.399a.674.674 0 0 1 .925.165.641.641 0 0 1-.137.91 44.512 44.512 0 0 0-3.032 2.334.647.647 0 0 1-.44.151zm58.714 1.631a.602.602 0 0 1-.396-.166 43.81 43.81 0 0 0-2.759-2.387.645.645 0 0 1-.127-.878.585.585 0 0 1 .844-.105c.975.777 1.93 1.604 2.835 2.457a.643.643 0 0 1 .055.88.574.574 0 0 1-.452.199zm-52.376-6.083a.683.683 0 0 1-.56-.328.638.638 0 0 1 .215-.891 44.99 44.99 0 0 1 3.465-1.809.674.674 0 0 1 .879.317.632.632 0 0 1-.288.864 44.026 44.026 0 0 0-3.364 1.761.649.649 0 0 1-.347.086zm46.587 1.478a.605.605 0 0 1-.317-.103 43.753 43.753 0 0 0-3.128-1.904.653.653 0 0 1-.271-.853.586.586 0 0 1 .819-.25 44.85 44.85 0 0 1 3.215 1.962.65.65 0 0 1 .199.868.583.583 0 0 1-.517.28zm-39.628-4.741a.679.679 0 0 1-.603-.428.628.628 0 0 1 .359-.831 44.721 44.721 0 0 1 3.701-1.171.668.668 0 0 1 .807.459.624.624 0 0 1-.429.791 42.803 42.803 0 0 0-3.594 1.142.622.622 0 0 1-.241.038zm33.125 1.148a.62.62 0 0 1-.228-.053 43.41 43.41 0 0 0-3.42-1.357.659.659 0 0 1-.411-.804.592.592 0 0 1 .771-.392 45.35 45.35 0 0 1 3.516 1.399.656.656 0 0 1 .341.832.588.588 0 0 1-.569.375zm-25.76-3.139a.674.674 0 0 1-.627-.533.618.618 0 0 1 .493-.746 45.073 45.073 0 0 1 3.818-.508.673.673 0 0 1 .713.583.614.614 0 0 1-.552.697 44.03 44.03 0 0 0-3.709.497.628.628 0 0 1-.136.01zm18.715.684a.648.648 0 0 1-.13-.019 44.005 44.005 0 0 0-3.617-.76.666.666 0 0 1-.543-.732.606.606 0 0 1 .699-.524c1.243.208 2.494.472 3.718.785.336.086.55.431.479.77a.596.596 0 0 1-.606.48zm-11.17-1.369a.67.67 0 0 1-.634-.638.61.61 0 0 1 .607-.643 44.07 44.07 0 0 1 3.823.148.665.665 0 0 1 .603.687.625.625 0 0 1-.655.585 43.957 43.957 0 0 0-3.744-.139z"/><path fill="#00394D" d="m710.54 135.792 31.644-13.003-17.101-11.681z"/><path fill="#035875" d="m742.27 129.061 34.047-31.679-50.719 21.776zM776.331 97.312l-76.061.266 15.987 10.539z"/><path fill="#004861" d="m776.317 97.382-50.757 21.966-15.02 16.444 5.601-27.91z"/><path fill="#E35669" d="M1025.563 717.31c.274.443.362.977.234 1.503a1.96 1.96 0 0 1-1.367 1.429l-6.623 1.932c-.686.2-1.404.025-1.92-.47a1.957 1.957 0 0 1-.553-1.898l1.639-6.702a1.956 1.956 0 0 1 1.367-1.428 1.957 1.957 0 0 1 1.92.47l4.984 4.77c.125.12.232.252.319.394zm-8.668 3.182a.41.41 0 0 0 .475.184l6.623-1.932a.411.411 0 0 0 .289-.302.41.41 0 0 0-.117-.401l-4.985-4.77a.408.408 0 0 0-.406-.099.411.411 0 0 0-.289.302l-1.639 6.702a.41.41 0 0 0 .049.316zM579.681 127.166c.274.443.362.977.234 1.503a1.957 1.957 0 0 1-1.367 1.428l-6.623 1.932c-.686.2-1.404.025-1.92-.469a1.957 1.957 0 0 1-.553-1.898l1.639-6.702a1.957 1.957 0 0 1 1.367-1.428 1.957 1.957 0 0 1 1.92.47l4.984 4.77c.124.12.231.252.319.394zm-8.668 3.182a.41.41 0 0 0 .475.184l6.623-1.932a.411.411 0 0 0 .289-.302.41.41 0 0 0-.117-.401l-4.985-4.77a.408.408 0 0 0-.406-.099.41.41 0 0 0-.289.302l-1.639 6.702a.402.402 0 0 0 .049.316zM322.543 664.44c.274.443.362.977.233 1.503a1.957 1.957 0 0 1-1.367 1.428l-6.623 1.932c-.686.2-1.404.025-1.92-.469a1.957 1.957 0 0 1-.553-1.898l1.639-6.702c.17-.694.681-1.228 1.367-1.428s1.404-.024 1.92.47l4.984 4.77c.125.119.232.252.32.394zm-8.668 3.182a.41.41 0 0 0 .475.184l6.623-1.932a.411.411 0 0 0 .289-.302.41.41 0 0 0-.117-.401l-4.985-4.77a.408.408 0 0 0-.406-.099.41.41 0 0 0-.289.302l-1.639 6.702a.403.403 0 0 0 .049.316z"/><path fill="#FFB86B" d="m1124.564 540.153 2.436-2.436a1.417 1.417 0 0 0-2.003-2.003l-2.436 2.436-2.436-2.436a1.417 1.417 0 0 0-2.003 2.003l2.436 2.436-2.432 2.432a1.417 1.417 0 0 0 2.002 2.003l2.432-2.432 2.432 2.432c.276.277.639.415 1.001.415a1.417 1.417 0 0 0 1.001-2.418l-2.43-2.432zM277.222 521.435l2.436-2.436a1.417 1.417 0 0 0-2.003-2.003l-2.436 2.436-2.436-2.436a1.417 1.417 0 0 0-2.003 2.003l2.436 2.436-2.432 2.432a1.417 1.417 0 0 0 2.002 2.003l2.432-2.432 2.432 2.432c.276.277.639.415 1.001.415a1.417 1.417 0 0 0 1.001-2.418l-2.43-2.432zM700.887 173.902l2.436-2.436a1.417 1.417 0 0 0-2.003-2.003l-2.436 2.436-2.436-2.436a1.417 1.417 0 0 0-2.003 2.003l2.436 2.436-2.432 2.432a1.417 1.417 0 0 0 2.002 2.003l2.432-2.432 2.432 2.432c.276.277.639.415 1.001.415a1.417 1.417 0 0 0 1.001-2.418l-2.43-2.432z"/><path fill="#035875" d="M1045.559 404.208a5.57 5.57 0 0 1-5.564-5.564c0-3.068 2.496-5.565 5.564-5.565s5.565 2.496 5.565 5.565a5.572 5.572 0 0 1-5.565 5.564zm0-9.388a3.827 3.827 0 0 0-3.823 3.823c0 2.108 1.715 3.823 3.823 3.823s3.823-1.715 3.823-3.823a3.827 3.827 0 0 0-3.823-3.823zM357.627 319.117a5.571 5.571 0 0 1-5.565-5.564 5.571 5.571 0 0 1 5.565-5.565 5.57 5.57 0 0 1 5.564 5.565 5.57 5.57 0 0 1-5.564 5.564zm0-9.388a3.827 3.827 0 0 0-3.823 3.823 3.827 3.827 0 0 0 3.823 3.823 3.827 3.827 0 0 0 3.823-3.823 3.827 3.827 0 0 0-3.823-3.823z"/></svg>